<?xml version="1.0" encoding="utf-8" standalone="yes"?>
<!DOCTYPE svg PUBLIC "-//W3C//DTD SVG 1.1//EN" "http://www.w3.org/Graphics/SVG/1.1/DTD/svg11.dtd">
<svg width="854" height="170" viewBox="0 0 854 170" style="fill:none;stroke:none;fill-rule:evenodd;clip-rule:evenodd;stroke-linecap:round;stroke-linejoin:round;stroke-miterlimit:1.5;" version="1.1" xmlns="http://www.w3.org/2000/svg" xmlns:xlink="http://www.w3.org/1999/xlink"><style id="fontImports"></style><rect id="" x="0" y="0" width="854" height="170" style="fill: #2c2c2c;"></rect><g id="items" style="isolation: isolate"><g id="blend" style="mix-blend-mode:screen"><g id="g-root-re_1lwrkgs1etgidk-fill" data-item-order="-119232" data-item-id="re_1lwrkgs1etgidk" data-item-class="Shape Stroke Fill" data-item-index="none" data-renderer-id="0" transform="translate(3, 3)"><g id="re_1lwrkgs1etgidk-fill" stroke="none" fill="#505050"><g><path d="M 10 10L 838 10L 838 154L 10 154Z"></path></g></g></g><g id="g-root-ro_1hclcuk1gh9vke-fill" data-item-order="-17280" data-item-id="ro_1hclcuk1gh9vke" data-item-class="Shape Stroke Fill" data-item-index="none" data-renderer-id="0" transform="translate(15, 15)"><g id="ro_1hclcuk1gh9vke-fill" stroke="none" fill="#505050"><g><path d="M 22 10L 142 10C 142 10 154 10 154 22L 154 118C 154 118 154 130 142 130L 22 130C 22 130 10 130 10 118L 10 22C 10 22 10 10 22 10"></path></g></g></g><g id="g-root-ro_92564s1ghi9s5-fill" data-item-order="-12960" data-item-id="ro_92564s1ghi9s5" data-item-class="Shape Stroke Fill" data-item-index="none" data-renderer-id="0" transform="translate(439, 39)"><g id="ro_92564s1ghi9s5-fill" stroke="none" fill="#224754"><g><path d="M 22 10L 178 10C 178 10 190 10 190 22L 190 70C 190 70 190 82 178 82L 22 82C 22 82 10 82 10 70L 10 22C 10 22 10 10 22 10"></path></g></g></g><g id="g-root-ro_1uuam301ghcn4f-fill" data-item-order="-12096" data-item-id="ro_1uuam301ghcn4f" data-item-class="Shape Stroke Fill" data-item-index="none" data-renderer-id="0" transform="translate(215, 39)"><g id="ro_1uuam301ghcn4f-fill" stroke="none" fill="#224754"><g><path d="M 22 10L 166 10C 166 10 178 10 178 22L 178 70C 178 70 178 82 166 82L 22 82C 22 82 10 82 10 70L 10 22C 10 22 10 10 22 10"></path></g></g></g><g id="g-root-ro_me85l81ghmih2-fill" data-item-order="-10368" data-item-id="ro_me85l81ghmih2" data-item-class="Shape Stroke Fill" data-item-index="none" data-renderer-id="0" transform="translate(675, 39)"><g id="ro_me85l81ghmih2-fill" stroke="none" fill="#224754"><g><path d="M 22 10L 142 10C 142 10 154 10 154 22L 154 70C 154 70 154 82 142 82L 22 82C 22 82 10 82 10 70L 10 22C 10 22 10 10 22 10"></path></g></g></g><g id="g-root-tx_userinit_4hycek1gh9wjo-fill" data-item-order="0" data-item-id="tx_userinit_4hycek1gh9wjo" data-item-class="Label Stroke" data-item-index="none" data-renderer-id="0" transform="translate(63, 27)"><g id="tx_userinit_4hycek1gh9wjo-fill" stroke="none" fill="#A3A3A3"><g><text style="font: 20px Arial, Helvetica, sans-serif; white-space: pre;"><tspan x="12" y="33" dominant-baseline="ideographic">User </tspan><tspan x="12" y="57" dominant-baseline="ideographic">Initiates </tspan><tspan x="12" y="81" dominant-baseline="ideographic">Project </tspan><tspan x="12" y="105" dominant-baseline="ideographic">Creation</tspan></text></g></g></g><g id="g-root-add_4o739o1ghcpom-fill" data-item-order="0" data-item-id="add_4o739o1ghcpom" data-item-class="Icon Stroke" data-item-index="none" data-renderer-id="0" transform="translate(227, 60)"></g><g id="g-root-tx_setproje_hznln01ghco3p-fill" data-item-order="0" data-item-id="tx_setproje_hznln01ghco3p" data-item-class="Label Stroke" data-item-index="none" data-renderer-id="0" transform="translate(263, 51)"><g id="tx_setproje_hznln01ghco3p-fill" stroke="none" fill="#1AC6FF"><g><text style="font: 20px Arial, Helvetica, sans-serif; white-space: pre;"><tspan x="12" y="33" dominant-baseline="ideographic">Set Project </tspan><tspan x="12" y="57" dominant-baseline="ideographic">Details</tspan></text></g></g></g><g id="g-root-tx_selectpr_zofpsc1ghi9s3-fill" data-item-order="0" data-item-id="tx_selectpr_zofpsc1ghi9s3" data-item-class="Label Stroke" data-item-index="none" data-renderer-id="0" transform="translate(487, 51)"><g id="tx_selectpr_zofpsc1ghi9s3-fill" stroke="none" fill="#1AC6FF"><g><text style="font: 20px Arial, Helvetica, sans-serif; white-space: pre;"><tspan x="12" y="33" dominant-baseline="ideographic">Select </tspan><tspan x="12" y="57" dominant-baseline="ideographic">Project Icon</tspan></text></g></g></g><g id="g-root-add_1q88d3g1gh9urp-fill" data-item-order="0" data-item-id="add_1q88d3g1gh9urp" data-item-class="Icon Stroke" data-item-index="none" data-renderer-id="0" transform="translate(27, 60)"></g><g id="g-root-wand_mcz7f01ghibd0-fill" data-item-order="0" data-item-id="wand_mcz7f01ghibd0" data-item-class="Icon Stroke" data-item-index="none" data-renderer-id="0" transform="translate(451, 60)"></g><g id="g-root-logo_qu1npo1ghmhot-fill" data-item-order="0" data-item-id="logo_qu1npo1ghmhot" data-item-class="Icon Stroke" data-item-index="none" data-renderer-id="0" transform="translate(687, 60)"></g><g id="g-root-tx_projectc_144vozw1ghmj9o-fill" data-item-order="0" data-item-id="tx_projectc_144vozw1ghmj9o" data-item-class="Label Stroke" data-item-index="none" data-renderer-id="0" transform="translate(723, 51)"><g id="tx_projectc_144vozw1ghmj9o-fill" stroke="none" fill="#1AC6FF"><g><text style="font: 20px Arial, Helvetica, sans-serif; white-space: pre;"><tspan x="12" y="33" dominant-baseline="ideographic">Project </tspan><tspan x="12" y="57" dominant-baseline="ideographic">Created</tspan></text></g></g></g><g id="g-root-cu_146r4981ghmia5-fill" data-item-order="2" data-item-id="cu_146r4981ghmia5" data-item-class="Curve Stroke" data-item-index="none" data-renderer-id="0" transform="translate(159, 75)"></g><g id="g-root-cu_1d2e4i41ghmhhe-fill" data-item-order="2" data-item-id="cu_1d2e4i41ghmhhe" data-item-class="Curve Stroke" data-item-index="none" data-renderer-id="0" transform="translate(383, 75)"></g><g id="g-root-cu_1hhl5jg1ghmjuv-fill" data-item-order="2" data-item-id="cu_1hhl5jg1ghmjuv" data-item-class="Curve Stroke" data-item-index="none" data-renderer-id="0" transform="translate(619, 75)"></g><g id="g-root-re_1lwrkgs1etgidk-stroke" data-item-order="-119232" data-item-id="re_1lwrkgs1etgidk" data-item-class="Shape Stroke Fill" data-item-index="none" data-renderer-id="0" transform="translate(3, 3)"><g id="re_1lwrkgs1etgidk-stroke" fill="none" stroke-linecap="round" stroke-linejoin="round" stroke-miterlimit="4" stroke="#A3A3A3" stroke-width="2" stroke-dasharray="5.0, 7.0"><g><path d="M 10 10L 838 10L 838 154L 10 154Z"></path></g></g></g><g id="g-root-ro_1hclcuk1gh9vke-stroke" data-item-order="-17280" data-item-id="ro_1hclcuk1gh9vke" data-item-class="Shape Stroke Fill" data-item-index="none" data-renderer-id="0" transform="translate(15, 15)"><g id="ro_1hclcuk1gh9vke-stroke" fill="none" stroke-linecap="round" stroke-linejoin="round" stroke-miterlimit="4" stroke="#A3A3A3" stroke-width="2" stroke-dasharray="5.0, 7.0"><g><path d="M 22 10L 142 10C 142 10 154 10 154 22L 154 118C 154 118 154 130 142 130L 22 130C 22 130 10 130 10 118L 10 22C 10 22 10 10 22 10"></path></g></g></g><g id="g-root-ro_92564s1ghi9s5-stroke" data-item-order="-12960" data-item-id="ro_92564s1ghi9s5" data-item-class="Shape Stroke Fill" data-item-index="none" data-renderer-id="0" transform="translate(439, 39)"><g id="ro_92564s1ghi9s5-stroke" fill="none" stroke-linecap="round" stroke-linejoin="round" stroke-miterlimit="4" stroke="#1AC6FF" stroke-width="2" stroke-dasharray="5.0, 7.0"><g><path d="M 22 10L 178 10C 178 10 190 10 190 22L 190 70C 190 70 190 82 178 82L 22 82C 22 82 10 82 10 70L 10 22C 10 22 10 10 22 10"></path></g></g></g><g id="g-root-ro_1uuam301ghcn4f-stroke" data-item-order="-12096" data-item-id="ro_1uuam301ghcn4f" data-item-class="Shape Stroke Fill" data-item-index="none" data-renderer-id="0" transform="translate(215, 39)"><g id="ro_1uuam301ghcn4f-stroke" fill="none" stroke-linecap="round" stroke-linejoin="round" stroke-miterlimit="4" stroke="#1AC6FF" stroke-width="2" stroke-dasharray="5.0, 7.0"><g><path d="M 22 10L 166 10C 166 10 178 10 178 22L 178 70C 178 70 178 82 166 82L 22 82C 22 82 10 82 10 70L 10 22C 10 22 10 10 22 10"></path></g></g></g><g id="g-root-ro_me85l81ghmih2-stroke" data-item-order="-10368" data-item-id="ro_me85l81ghmih2" data-item-class="Shape Stroke Fill" data-item-index="none" data-renderer-id="0" transform="translate(675, 39)"><g id="ro_me85l81ghmih2-stroke" fill="none" stroke-linecap="round" stroke-linejoin="round" stroke-miterlimit="4" stroke="#1AC6FF" stroke-width="2" stroke-dasharray="5.0, 7.0"><g><path d="M 22 10L 142 10C 142 10 154 10 154 22L 154 70C 154 70 154 82 142 82L 22 82C 22 82 10 82 10 70L 10 22C 10 22 10 10 22 10"></path></g></g></g><g id="g-root-tx_userinit_4hycek1gh9wjo-stroke" data-item-order="0" data-item-id="tx_userinit_4hycek1gh9wjo" data-item-class="Label Stroke" data-item-index="none" data-renderer-id="0" transform="translate(63, 27)"></g><g id="g-root-add_4o739o1ghcpom-stroke" data-item-order="0" data-item-id="add_4o739o1ghcpom" data-item-class="Icon Stroke" data-item-index="none" data-renderer-id="0" transform="translate(227, 60)"><g id="add_4o739o1ghcpom-stroke" fill="none" stroke-linecap="round" stroke-linejoin="round" stroke-miterlimit="4" stroke="#1AC6FF" stroke-width="2"><g><path d="M 22.5 39.375L 11.875 39.375C 11.184644 39.375 10.625 38.815353 10.625 38.125L 10.625 14.375C 10.625 13.684644 11.184644 13.125 11.875 13.125L 14.375 13.125M 29.375 13.125L 31.875 13.125C 32.565353 13.125 33.125 13.684644 33.125 14.375L 33.125 21.875M 24.375 13.125C 24.375 11.744288 23.255713 10.625 21.875 10.625C 20.494287 10.625 19.375 11.744288 19.375 13.125L 16.875 13.125L 16.875 16.875L 26.875 16.875L 26.875 13.125ZM 30.625 21.875L 30.625 16.25C 30.625 15.904821 30.345177 15.625 30 15.625L 26.875 15.625M 16.875 15.625L 13.75 15.625C 13.404822 15.625 13.125 15.904821 13.125 16.25L 13.125 36.25C 13.125 36.595177 13.404822 36.875 13.75 36.875L 22.5 36.875M 16.875 20.623749L 26.875 20.623749M 16.875 24.373749L 24.375 24.373749M 16.875 28.123749L 21.875 28.123749M 24.375 31.873751C 24.375002 36.015888 27.732864 39.373749 31.875 39.373749C 36.017136 39.373749 39.375 36.015888 39.375 31.873751C 39.375 27.731615 36.017136 24.373751 31.875 24.373751C 27.732864 24.373751 24.375002 27.731615 24.375002 31.873751ZM 31.875 28.123749L 31.875 35.623749M 35.625 31.873751L 28.125 31.873751"></path></g></g></g><g id="g-root-tx_setproje_hznln01ghco3p-stroke" data-item-order="0" data-item-id="tx_setproje_hznln01ghco3p" data-item-class="Label Stroke" data-item-index="none" data-renderer-id="0" transform="translate(263, 51)"></g><g id="g-root-tx_selectpr_zofpsc1ghi9s3-stroke" data-item-order="0" data-item-id="tx_selectpr_zofpsc1ghi9s3" data-item-class="Label Stroke" data-item-index="none" data-renderer-id="0" transform="translate(487, 51)"></g><g id="g-root-add_1q88d3g1gh9urp-stroke" data-item-order="0" data-item-id="add_1q88d3g1gh9urp" data-item-class="Icon Stroke" data-item-index="none" data-renderer-id="0" transform="translate(27, 60)"><g id="add_1q88d3g1gh9urp-stroke" fill="none" stroke-linecap="round" stroke-linejoin="round" stroke-miterlimit="4" stroke="#A3A3A3" stroke-width="2"><g><path d="M 26.875 33.125C 26.875 36.576778 29.673222 39.375 33.125 39.375C 36.576778 39.375 39.375 36.576778 39.375 33.125C 39.375 29.673222 36.576778 26.875 33.125 26.875C 29.673222 26.875 26.875 29.673222 26.875 33.125ZM 33.125 30.625L 33.125 35.625M 30.625 33.125L 35.625 33.125M 10.625 26.875C 10.637154 25.714609 10.877112 24.567902 11.33125 23.5C 11.83125 22.5 13.91 21.8125 16.522499 20.844999C 17.22875 20.58375 17.112499 18.74 16.799999 18.395C 15.792845 17.303646 15.299419 15.834283 15.44375 14.35625C 15.353253 13.415162 15.657961 12.478797 16.284966 11.771194C 16.91197 11.063592 17.804861 10.648415 18.75 10.625C 19.695139 10.648415 20.58803 11.063592 21.215034 11.771194C 21.842039 12.478797 22.146746 13.415162 22.05625 14.35625C 22.200947 15.834702 21.707495 17.304594 20.699999 18.39625C 20.387501 18.741249 20.27125 20.585001 20.977499 20.846251C 23.59 21.813751 25.67 22.504999 26.168751 23.501249C 26.622889 24.569153 26.862846 25.715858 26.875 26.876251ZM 23.639999 10.92125C 24.066275 10.724414 24.530476 10.623296 24.999998 10.625C 25.945137 10.648415 26.83803 11.063592 27.465034 11.771194C 28.092039 12.478797 28.396746 13.415162 28.30625 14.35625C 28.450947 15.834702 27.957495 17.304594 26.949999 18.39625C 26.637501 18.741249 26.52125 20.585001 27.227499 20.846251C 29.84 21.813751 31.919998 22.504999 32.418751 23.501249C 32.44875 23.5625 32.478748 23.626249 32.506248 23.688751"></path></g></g></g><g id="g-root-wand_mcz7f01ghibd0-stroke" data-item-order="0" data-item-id="wand_mcz7f01ghibd0" data-item-class="Icon Stroke" data-item-index="none" data-renderer-id="0" transform="translate(451, 60)"><g id="wand_mcz7f01ghibd0-stroke" fill="none" stroke-linecap="round" stroke-linejoin="round" stroke-miterlimit="4" stroke="#1AC6FF" stroke-width="2"><g><path d="M 11.071428 38.92857L 30.357141 19.642857M 34.642857 15.357142L 36.785713 13.214286M 29.285713 14.285714L 29.285713 11.071428M 35.714287 20.714285L 38.92857 20.714285M 33.571426 25L 35.714287 27.142857M 22.857143 14.285714L 25 16.428572"></path></g></g></g><g id="g-root-logo_qu1npo1ghmhot-stroke" data-item-order="0" data-item-id="logo_qu1npo1ghmhot" data-item-class="Icon Stroke" data-item-index="none" data-renderer-id="0" transform="translate(687, 60)"><g id="logo_qu1npo1ghmhot-stroke" fill="none" stroke-linecap="round" stroke-linejoin="round" stroke-miterlimit="4" stroke="#1AC6FF" stroke-width="2"><g><path d="M 39.375 20.9375L 39.375 29.6875L 35.625 30.9375L 35.625 19.6875L 31.25 18.4375L 31.25 32.1875L 27.5 33.4375L 27.5 17.1875L 25 16.5625L 22.5 17.1875L 22.5 33.4375L 18.75 32.1875L 18.75 18.4375L 14.375 19.6875L 14.375 30.9375L 10.625 29.6875L 10.625 20.9375"></path></g></g></g><g id="g-root-tx_projectc_144vozw1ghmj9o-stroke" data-item-order="0" data-item-id="tx_projectc_144vozw1ghmj9o" data-item-class="Label Stroke" data-item-index="none" data-renderer-id="0" transform="translate(723, 51)"></g><g id="g-root-cu_146r4981ghmia5-stroke" data-item-order="2" data-item-id="cu_146r4981ghmia5" data-item-class="Curve Stroke" data-item-index="none" data-renderer-id="0" transform="translate(159, 75)"><g id="cu_146r4981ghmia5-stroke" fill="none" stroke-linecap="round" stroke-linejoin="round" stroke-miterlimit="4" stroke="#A3A3A3" stroke-width="2"><g><path d="M 10 10L 38 10L 64 10"></path><path d="M 58 16.5L 64.5 10L 58 3.5" stroke-dasharray="none"></path></g></g></g><g id="g-root-cu_1d2e4i41ghmhhe-stroke" data-item-order="2" data-item-id="cu_1d2e4i41ghmhhe" data-item-class="Curve Stroke" data-item-index="none" data-renderer-id="0" transform="translate(383, 75)"><g id="cu_1d2e4i41ghmhhe-stroke" fill="none" stroke-linecap="round" stroke-linejoin="round" stroke-miterlimit="4" stroke="#A3A3A3" stroke-width="2"><g><path d="M 10 10L 38 10L 64 10"></path><path d="M 58 16.5L 64.5 10L 58 3.5" stroke-dasharray="none"></path></g></g></g><g id="g-root-cu_1hhl5jg1ghmjuv-stroke" data-item-order="2" data-item-id="cu_1hhl5jg1ghmjuv" data-item-class="Curve Stroke" data-item-index="none" data-renderer-id="0" transform="translate(619, 75)"><g id="cu_1hhl5jg1ghmjuv-stroke" fill="none" stroke-linecap="round" stroke-linejoin="round" stroke-miterlimit="4" stroke="#A3A3A3" stroke-width="2"><g><path d="M 10 10L 38 10L 64 10"></path><path d="M 58 16.5L 64.5 10L 58 3.5" stroke-dasharray="none"></path></g></g></g></g></g></svg>