<?xml version="1.0" encoding="utf-8" standalone="yes"?>
<!DOCTYPE svg PUBLIC "-//W3C//DTD SVG 1.1//EN" "http://www.w3.org/Graphics/SVG/1.1/DTD/svg11.dtd">
<svg width="708" height="578" viewBox="0 0 708 578" style="fill:none;stroke:none;fill-rule:evenodd;clip-rule:evenodd;stroke-linecap:round;stroke-linejoin:round;stroke-miterlimit:1.5;" version="1.1" xmlns="http://www.w3.org/2000/svg" xmlns:xlink="http://www.w3.org/1999/xlink"><style id="fontImports">@import url("https://fonts.googleapis.com/css2?family=Shantell+Sans:wght@300..800&amp;display=block");</style><rect id="" x="0" y="0" width="708" height="578" style="fill: #2c2c2c;"></rect><g id="items" style="isolation: isolate"><g id="blend" style="mix-blend-mode:screen"><g id="g-root--1.cu_sy_1ly0cbx1f3buv7-fill" data-item-order="-123548" data-item-id="-1.cu_sy_1ly0cbx1f3buv7" data-item-class="Part Fill Stroke ColorStrokeGray" data-item-index="-1" data-renderer-id="0" transform="translate(302, 86)"><g id="-1.cu_sy_1ly0cbx1f3buv7-fill" stroke="none" fill="none"><g><path d="M 65.766602 478C 80.754802 478 106.000002 373.235 106.000002 244C 106.000002 114.765 80.754802 10 65.766602 10C 80.775202 10.0122 92.941702 115.084 92.941702 244C 92.941702 372.916 80.775202 477.988 65.766602 478ZM 65.765897 478C 80.774597 477.988 92.941097 372.916 92.941097 244C 92.941097 115.084 80.774597 10.0122 65.765897 10L 51.957397 10C 66.060697 18.3945 77.199297 120.263 77.199297 244C 77.199297 367.737 65.382597 469.605 51.279297 478L 65.765897 478ZM 77.2 244C 77.2 367.737 65.3833 469.605 51.28 478L 50.0615 478C 35.0734 478 10 373.235 10 244C 10 114.765 35.0734 10 50.0615 10C 50.6991 10 51.9581 10 51.9581 10C 66.0614 18.3945 77.2 120.263 77.2 244Z"></path></g></g></g><g id="g-root-6.line_sy_qvwajx1f3bvnl-fill" data-item-order="-123545" data-item-id="6.line_sy_qvwajx1f3bvnl" data-item-class="Part Indexed Stroke ColorStrokeGray" data-item-index="6" data-renderer-id="0" transform="translate(218, 362)"></g><g id="g-root-5.line_sy_vbpsod1f3buvc-fill" data-item-order="-123543" data-item-id="5.line_sy_vbpsod1f3buvc" data-item-class="Part Indexed Stroke ColorStrokeGray" data-item-index="5" data-renderer-id="0" transform="translate(218, 348)"></g><g id="g-root-4.line_sy_zqwtpp1f3bx8v-fill" data-item-order="-123541" data-item-id="4.line_sy_zqwtpp1f3bx8v" data-item-class="Part Indexed Stroke ColorStrokeGray" data-item-index="4" data-renderer-id="0" transform="translate(218, 330)"></g><g id="g-root-3.line_sy_18mjtyl1f3bwg6-fill" data-item-order="-123539" data-item-id="3.line_sy_18mjtyl1f3bwg6" data-item-class="Part Indexed Stroke ColorStrokeGray" data-item-index="3" data-renderer-id="0" transform="translate(218.10940551757812, 278)"></g><g id="g-root-2.line_sy_18mjtyl1f3bwg5-fill" data-item-order="-123537" data-item-id="2.line_sy_18mjtyl1f3bwg5" data-item-class="Part Indexed Stroke ColorStrokeGray" data-item-index="2" data-renderer-id="0" transform="translate(218, 194)"></g><g id="g-root-1.line_sy_1d2dc311f3bvnw-fill" data-item-order="-123535" data-item-id="1.line_sy_1d2dc311f3bvnw" data-item-class="Part Indexed Indexed_1 Stroke ColorStrokeGray" data-item-index="1" data-renderer-id="0" transform="translate(218, 110)"></g><g id="g-root-tx_projectm_4ik12l1f3dam9-fill" data-item-order="0" data-item-id="tx_projectm_4ik12l1f3dam9" data-item-class="Label Stroke Title ColorStrokeGray" data-item-index="none" data-renderer-id="0" transform="translate(122, 2)"><g id="tx_projectm_4ik12l1f3dam9-fill" stroke="none" fill="#A3A3A3"><g><text style="font: bold 25px &quot;Shantell Sans&quot;, cursive; white-space: pre;"><tspan x="16.31" y="45" dominant-baseline="ideographic">Project Management Application</tspan></text></g></g></g><g id="g-root-tx_usermana_hte2ct1f3dc74-fill" data-item-order="0" data-item-id="tx_usermana_hte2ct1f3dc74" data-item-class="Label Stroke Indexed Indexed_1 ColorStrokeGray" data-item-index="1" data-renderer-id="0" transform="translate(14, 86)"><g id="tx_usermana_hte2ct1f3dc74-fill" stroke="none" fill="#A3A3A3"><g><text style="font: 20px &quot;Shantell Sans&quot;, cursive; white-space: pre;"><tspan x="96.97" y="35" dominant-baseline="ideographic">User </tspan><tspan x="11.67" y="59" dominant-baseline="ideographic">Management</tspan></text></g></g></g><g id="g-root-key_93dbvx1f3pxce-fill" data-item-order="0" data-item-id="key_93dbvx1f3pxce" data-item-class="Icon Stroke Indexed Indexed_1 ColorStrokeGray" data-item-index="1" data-renderer-id="0" transform="translate(158, 86)"></g><g id="g-root-tx_projectc_qp12lp1f3damn-fill" data-item-order="0" data-item-id="tx_projectc_qp12lp1f3damn" data-item-class="Label Stroke Indexed ColorStrokeGray" data-item-index="2" data-renderer-id="0" transform="translate(14, 158)"><g id="tx_projectc_qp12lp1f3damn-fill" stroke="none" fill="#A3A3A3"><g><text style="font: 20px &quot;Shantell Sans&quot;, cursive; white-space: pre;"><tspan x="73.64" y="35" dominant-baseline="ideographic">Project </tspan><tspan x="39.53" y="59" dominant-baseline="ideographic">Creation &amp; </tspan><tspan x="11.67" y="83" dominant-baseline="ideographic">Management</tspan></text></g></g></g><g id="g-root-crea_8ydj711f3okjs-fill" data-item-order="0" data-item-id="crea_8ydj711f3okjs" data-item-class="Icon Stroke Indexed ColorStrokeGray" data-item-index="2" data-renderer-id="0" transform="translate(158, 170)"></g><g id="g-root-tx_taskmana_zko2ul1f3d9ty-fill" data-item-order="0" data-item-id="tx_taskmana_zko2ul1f3d9ty" data-item-class="Label Stroke Indexed ColorStrokeGray" data-item-index="3" data-renderer-id="0" transform="translate(14, 254)"><g id="tx_taskmana_zko2ul1f3d9ty-fill" stroke="none" fill="#A3A3A3"><g><text style="font: 20px &quot;Shantell Sans&quot;, cursive; white-space: pre;"><tspan x="96.56" y="35" dominant-baseline="ideographic">Task </tspan><tspan x="11.67" y="59" dominant-baseline="ideographic">Management</tspan></text></g></g></g><g id="g-root-task_8csq51f3n47a-fill" data-item-order="0" data-item-id="task_8csq51f3n47a" data-item-class="Icon Stroke Indexed ColorStrokeGray" data-item-index="3" data-renderer-id="0" transform="translate(158, 254)"></g><g id="g-root-cog_qvwajx1f3n6dc-fill" data-item-order="0" data-item-id="cog_qvwajx1f3n6dc" data-item-class="Icon Stroke ColorStrokeGray" data-item-index="none" data-renderer-id="0" transform="translate(482, 296)"></g><g id="g-root-tx_projectm_v2z5gt1f3dblu-fill" data-item-order="0" data-item-id="tx_projectm_v2z5gt1f3dblu" data-item-class="Label Stroke ColorStrokeGray" data-item-index="none" data-renderer-id="0" transform="translate(542, 284)"><g id="tx_projectm_v2z5gt1f3dblu-fill" stroke="none" fill="#A3A3A3"><g><text style="font: 20px &quot;Shantell Sans&quot;, cursive; white-space: pre;"><tspan x="12" y="35" dominant-baseline="ideographic">Project </tspan><tspan x="12" y="59" dominant-baseline="ideographic">Management </tspan><tspan x="12" y="83" dominant-baseline="ideographic">Application</tspan></text></g></g></g><g id="g-root-tx_visualpr_1cvi44t1f3dbet-fill" data-item-order="0" data-item-id="tx_visualpr_1cvi44t1f3dbet" data-item-class="Label Stroke Indexed ColorStrokeGray" data-item-index="4" data-renderer-id="0" transform="translate(2, 338)"><g id="tx_visualpr_1cvi44t1f3dbet-fill" stroke="none" fill="#A3A3A3"><g><text style="font: 20px &quot;Shantell Sans&quot;, cursive; white-space: pre;"><tspan x="20.72" y="35" dominant-baseline="ideographic">Visual Project </tspan><tspan x="70.56" y="59" dominant-baseline="ideographic">Tracking</tspan></text></g></g></g><g id="g-root-targ_8x4l0t1f3oido-fill" data-item-order="0" data-item-id="targ_8x4l0t1f3oido" data-item-class="Icon Stroke Indexed ColorStrokeGray" data-item-index="4" data-renderer-id="0" transform="translate(158, 338)"></g><g id="g-root-tx_progress_1q6ymi51f3d9tw-fill" data-item-order="0" data-item-id="tx_progress_1q6ymi51f3d9tw" data-item-class="Label Stroke Indexed ColorStrokeGray" data-item-index="5" data-renderer-id="0" transform="translate(50, 422)"><g id="tx_progress_1q6ymi51f3d9tw-fill" stroke="none" fill="#A3A3A3"><g><text style="font: 20px &quot;Shantell Sans&quot;, cursive; white-space: pre;"><tspan x="21.53" y="35" dominant-baseline="ideographic">Progress </tspan><tspan x="22.56" y="59" dominant-baseline="ideographic">Tracking</tspan></text></g></g></g><g id="g-root-2_1hby3cd1f3oi6m-fill" data-item-order="0" data-item-id="2_1hby3cd1f3oi6m" data-item-class="Icon Stroke Indexed ColorStrokeGray" data-item-index="5" data-renderer-id="0" transform="translate(158, 422)"></g><g id="g-root-tx_collabor_4golt91f3dblv-fill" data-item-order="0" data-item-id="tx_collabor_4golt91f3dblv" data-item-class="Label Stroke Indexed ColorStrokeGray" data-item-index="6" data-renderer-id="0" transform="translate(2, 506)"><g id="tx_collabor_4golt91f3dblv-fill" stroke="none" fill="#A3A3A3"><g><text style="font: 20px &quot;Shantell Sans&quot;, cursive; white-space: pre;"><tspan x="21.84" y="35" dominant-baseline="ideographic">Collaboration </tspan><tspan x="101.89" y="59" dominant-baseline="ideographic">Tools</tspan></text></g></g></g><g id="g-root-shar_1cu95yl1f3ojyi-fill" data-item-order="0" data-item-id="shar_1cu95yl1f3ojyi" data-item-class="Icon Stroke Indexed ColorStrokeGray" data-item-index="6" data-renderer-id="0" transform="translate(158, 506)"></g><g id="g-root--1.cu_sy_1ly0cbx1f3buv7-stroke" data-item-order="-123548" data-item-id="-1.cu_sy_1ly0cbx1f3buv7" data-item-class="Part Fill Stroke ColorStrokeGray" data-item-index="-1" data-renderer-id="0" transform="translate(302, 86)"><g id="-1.cu_sy_1ly0cbx1f3buv7-stroke" fill="none" stroke-linecap="round" stroke-linejoin="round" stroke-miterlimit="4" stroke="#A3A3A3" stroke-width="4"><g><path d="M 65.8 478C 69.5 477.3 73.6 470.9 78.7 458.7C 83.6 447 88.3 430 91.6 409.1C 94.7 389 99.2 365.5 101.4 339.4C 103.9 310.2 105.2 278 106 244C 106.7 212.9 104.4 183.2 102.1 156C 99.6 126.4 96.3 99.7 91.4 77.7C 86.7 57.2 81.8 40.7 78.5 28.7C 75.1 16.3 69.3 8.6 65.8 10C 71 10.1 76 22.6 79.9 44.4C 84.1 67 87.7 99.5 90 138.1C 91.9 169.9 92.3 205.9 92.9 244C 93.5 278.7 92.2 311.6 90.5 341.2C 89 367.2 87.4 390.7 84.8 410.5C 82.3 430.2 79.8 446.5 76.8 458C 73.4 470.8 69.7 477.8 65.8 478M 65.8 478C 70.3 478.9 76 468.2 78.6 450.3C 81.3 431.6 87.8 405.3 88.4 372.9C 89.2 335.8 92.1 291.6 92.9 244C 93.5 210.1 93.6 177.7 90.6 148.6C 87.8 121.4 86.6 96.8 84.7 76.1C 82.6 53.8 79.1 36.2 75.3 24.9C 72.1 15.3 69.1 10.3 65.8 10C 61.2 9.5 56.5 10.4 52 10C 55.2 12.3 58.1 19.6 61.5 31.5C 65 43.3 66.7 59.9 69.4 79.8C 72.3 101 72.1 126.4 75.1 154.3C 78.1 181.8 77.8 212.3 77.2 244C 76.8 264.9 77.6 285.2 76.2 304.5C 74.9 323.6 75.1 341.9 73.5 358.8C 72 375.6 72.9 391.4 69.4 405C 66 418.8 65.8 431.6 64.1 442.1C 62.5 452.2 59.9 460.4 58 466.5C 56.1 472.8 53.9 477.5 51.3 478C 56.1 477.8 61 478.6 65.8 478M 77.2 244C 77.4 276.8 77.4 308 74.9 336.3C 72.6 362.9 72 387.2 69.1 407.7C 66.6 425.8 63.9 441 61.9 452.9C 59.4 467.1 55 475.8 51.3 478C 50.9 478.1 50.5 477.9 50.1 478C 46.2 479 41.1 470.5 36.5 456.9C 32.7 445.5 26.8 430.2 24.7 411C 22.3 389.5 17.8 364.2 14.2 335.9C 10.7 307.8 10.1 276.6 10 244C 9.9 214.5 9.9 186.1 13.5 160.3C 17.2 133.7 19.3 109.2 22.7 88.1C 26.2 65.2 31.4 46.6 35.8 33.1C 40.7 18.3 45.9 9.8 50.1 10C 50.7 10 52 10 52 10C 55.8 11.7 59.6 20.2 62 33.4C 64.4 46.9 67.4 65.1 70.2 87.2C 72.9 107.5 73.4 131.1 75.3 156.8C 77.3 183.7 78.7 213.3 77.2 244"></path><path d="M 65.766602 478C 80.754802 478 106.000002 373.2347 106.000002 244C 106.000002 114.7654 80.754802 10 65.766602 10C 80.775202 10.0122 92.941702 115.0836 92.941702 244C 92.941702 372.9165 80.775202 477.9878 65.766602 478ZM 65.765897 478C 80.774597 477.9878 92.941097 372.9165 92.941097 244C 92.941097 115.0836 80.774597 10.0122 65.765897 10L 51.957397 10C 66.060697 18.3945 77.199297 120.2626 77.199297 244C 77.199297 367.7375 65.382597 469.6055 51.279297 478L 65.765897 478ZM 77.2 244C 77.2 367.7375 65.3833 469.6055 51.28 478L 50.0615 478C 35.0734 478 10 373.2347 10 244C 10 114.7654 35.0734 10 50.0615 10C 50.6991 10 51.9581 10 51.9581 10C 66.0614 18.3945 77.2 120.2626 77.2 244Z"></path></g></g></g><g id="g-root-6.line_sy_qvwajx1f3bvnl-stroke" data-item-order="-123545" data-item-id="6.line_sy_qvwajx1f3bvnl" data-item-class="Part Indexed Stroke ColorStrokeGray" data-item-index="6" data-renderer-id="0" transform="translate(218, 362)"><g id="6.line_sy_qvwajx1f3bvnl-stroke" fill="none" stroke-linecap="round" stroke-linejoin="round" stroke-miterlimit="4" stroke="#A3A3A3" stroke-width="2"><g><path d="M 272.7 11.5C 262.8 23.7 252.9 36 242 47.4C 231.2 58.6 223 72.2 211.6 82.8C 201.6 92.1 192.5 102.5 185 113.9C 176.4 126.8 164 136.7 154.7 149.1C 147.2 159.3 139.5 169.5 130 178C 90 178 50 178.6 10 178"></path><path d="M 272.7 11.52L 130 178L 10 178"></path><path d="M 273.7 20.3C 273.1 17.3 273.1 14.2 273 11.1C 270.3 12.4 266.8 12.7 263.9 11.8" stroke-dasharray="none"></path><path d="M 273.7 20.3L 273 11.1L 263.9 11.8" stroke-dasharray="none"></path></g></g></g><g id="g-root-5.line_sy_vbpsod1f3buvc-stroke" data-item-order="-123543" data-item-id="5.line_sy_vbpsod1f3buvc" data-item-class="Part Indexed Stroke ColorStrokeGray" data-item-index="5" data-renderer-id="0" transform="translate(218, 348)"><g id="5.line_sy_vbpsod1f3buvc-stroke" fill="none" stroke-linecap="round" stroke-linejoin="round" stroke-miterlimit="4" stroke="#A3A3A3" stroke-width="2"><g><path d="M 257.4 11.2C 246.4 20.1 235.3 29.1 223.5 37C 211.7 44.9 199.9 52.9 189.7 62.7C 180.9 71.2 170.6 78 160.5 84.9C 149.9 92 140 100.1 130 108C 111.7 108 93.3 108.9 75 108C 53.4 106.9 31.6 106.8 10 108"></path><path d="M 257.41 11.21L 130 108L 10 108"></path><path d="M 256.6 20C 256.6 16.9 257.2 13.9 257.8 10.9C 254.8 10.3 251.8 9.7 248.7 9.7" stroke-dasharray="none"></path><path d="M 256.6 20L 257.8 10.9L 248.7 9.7" stroke-dasharray="none"></path></g></g></g><g id="g-root-4.line_sy_zqwtpp1f3bx8v-stroke" data-item-order="-123541" data-item-id="4.line_sy_zqwtpp1f3bx8v" data-item-class="Part Indexed Stroke ColorStrokeGray" data-item-index="4" data-renderer-id="0" transform="translate(218, 330)"><g id="4.line_sy_zqwtpp1f3bx8v-stroke" fill="none" stroke-linecap="round" stroke-linejoin="round" stroke-miterlimit="4" stroke="#A3A3A3" stroke-width="2"><g><path d="M 250.1 10.5C 229.3 16.7 208.4 22.4 187.3 27C 168 31.2 149.3 37.9 130 42C 110.7 41.2 91.4 41.5 72.1 42C 51.4 42.5 30.7 40.9 10 42"></path><path d="M 250.07 10.51L 130 42L 10 42"></path><path d="M 245.9 18.3C 246.8 15.4 248.6 12.8 250.5 10.4C 247.7 9.2 245 7.6 242.6 5.7" stroke-dasharray="none"></path><path d="M 245.9 18.3L 250.5 10.4L 242.6 5.7" stroke-dasharray="none"></path></g></g></g><g id="g-root-3.line_sy_18mjtyl1f3bwg6-stroke" data-item-order="-123539" data-item-id="3.line_sy_18mjtyl1f3bwg6" data-item-class="Part Indexed Stroke ColorStrokeGray" data-item-index="3" data-renderer-id="0" transform="translate(218.10940551757812, 278)"><g id="3.line_sy_18mjtyl1f3bwg6-stroke" fill="none" stroke-linecap="round" stroke-linejoin="round" stroke-miterlimit="4" stroke="#A3A3A3" stroke-width="2"><g><path d="M 249.990594 41.5C 231.090594 38.2 213.190594 30.3 194.390594 26.9C 172.490594 22.9 151.090594 16.7 129.890594 10C 89.890594 9.4 49.990594 11.1 9.990594 10"></path><path d="M 249.960594 41.49L 129.890594 10L 10.000594 10"></path><path d="M 242.490594 46.3C 244.390594 43.9 248.390594 43.9 250.390594 41.6C 249.290594 38.8 247.090594 36.5 245.790594 33.7" stroke-dasharray="none"></path><path d="M 242.490594 46.3L 250.390594 41.6L 245.790594 33.7" stroke-dasharray="none"></path></g></g></g><g id="g-root-2.line_sy_18mjtyl1f3bwg5-stroke" data-item-order="-123537" data-item-id="2.line_sy_18mjtyl1f3bwg5" data-item-class="Part Indexed Stroke ColorStrokeGray" data-item-index="2" data-renderer-id="0" transform="translate(218, 194)"><g id="2.line_sy_18mjtyl1f3bwg5-stroke" fill="none" stroke-linecap="round" stroke-linejoin="round" stroke-miterlimit="4" stroke="#A3A3A3" stroke-width="2"><g><path d="M 257.4 106.8C 246.6 98 235.2 90 224.2 81.6C 213.2 73.1 202.8 63.7 191 56.3C 179.9 49.4 170.3 40.4 159.8 32.7C 149.8 25.2 140.4 17 130 10C 111.3 10.6 92.5 9.5 73.8 10C 52.6 10.5 31.3 9.9 10 10"></path><path d="M 257.41 106.79L 130 10L 10 10"></path><path d="M 248.7 108.3C 251.8 108.4 254.8 107.5 257.8 107.1C 257.2 104.1 257.9 100.8 256.6 98" stroke-dasharray="none"></path><path d="M 248.7 108.3L 257.8 107.1L 256.6 98" stroke-dasharray="none"></path></g></g></g><g id="g-root-1.line_sy_1d2dc311f3bvnw-stroke" data-item-order="-123535" data-item-id="1.line_sy_1d2dc311f3bvnw" data-item-class="Part Indexed Indexed_1 Stroke ColorStrokeGray" data-item-index="1" data-renderer-id="0" transform="translate(218, 110)"><g id="1.line_sy_1d2dc311f3bvnw-stroke" fill="none" stroke-linecap="round" stroke-linejoin="round" stroke-miterlimit="4" stroke="#A3A3A3" stroke-width="2"><g><path d="M 272.7 176.5C 256.8 159.3 242.8 140.4 227 123.1C 211.5 106.3 198.4 87.3 182.3 71.1C 163.5 52 148.4 29.5 130 10C 116.7 9.5 103.5 9.7 90.2 10C 78 10.3 65.7 10.4 53.4 10C 39 9.5 24.5 9.9 10 10"></path><path d="M 272.7 176.48L 130 10L 10 10"></path><path d="M 263.9 176.2C 266.9 176.3 270 177.4 273 176.9C 272.1 174 274 170.8 273.7 167.7" stroke-dasharray="none"></path><path d="M 263.9 176.2L 273 176.9L 273.7 167.7" stroke-dasharray="none"></path></g></g></g><g id="g-root-tx_projectm_4ik12l1f3dam9-stroke" data-item-order="0" data-item-id="tx_projectm_4ik12l1f3dam9" data-item-class="Label Stroke Title ColorStrokeGray" data-item-index="none" data-renderer-id="0" transform="translate(122, 2)"></g><g id="g-root-tx_usermana_hte2ct1f3dc74-stroke" data-item-order="0" data-item-id="tx_usermana_hte2ct1f3dc74" data-item-class="Label Stroke Indexed Indexed_1 ColorStrokeGray" data-item-index="1" data-renderer-id="0" transform="translate(14, 86)"></g><g id="g-root-key_93dbvx1f3pxce-stroke" data-item-order="0" data-item-id="key_93dbvx1f3pxce" data-item-class="Icon Stroke Indexed Indexed_1 ColorStrokeGray" data-item-index="1" data-renderer-id="0" transform="translate(158, 86)"><g id="key_93dbvx1f3pxce-stroke" fill="none" stroke-linecap="round" stroke-linejoin="round" stroke-miterlimit="4" stroke="#A3A3A3" stroke-width="2"><g><path d="M 42.799999 50.400002C 41.799999 51.400002 40.200001 51.599998 39.200001 50.400002C 38.400002 49.400002 38.599998 48 39.200001 47C 40 45.799999 42.200001 45.599998 42.799999 47C 43.400002 48.200001 43.599998 49.400002 42.799999 50.400002M 48 45.799999C 51.400002 43.599998 53.799999 40 56.799999 37.200001C 57 37.200001 57 36.799999 57 36.599998C 57 35.799999 57 34.799999 57 34C 57 33.400002 56.599998 33.200001 56 33C 55.200001 32.799999 54.200001 33 53.400002 33C 53.200001 33 53 33.200001 52.799999 33.200001C 49.400002 35.599998 46.599998 38.599998 43.799999 41.599998C 40.200001 40.799999 35.400002 41 34 44.599998C 32.799999 48.200001 31.799999 52.799999 35 54.599998C 38.400002 56.400002 41.400002 56.400002 45.200001 55.599998C 49 54.799999 49.799999 49.200001 48 45.799999M 27 45C 21.799999 45.799999 16.4 44.799999 11 45C 12.2 39.200001 14.4 32.799999 20.200001 31.799999C 26 31 32.200001 31.200001 35.799999 36M 17.6 15.2C 19.6 18.4 24 20 27.799999 19.6C 29.799999 19.200001 31.6 18.799999 33.400002 18.4M 16.6 19.6C 17.799999 24 20.4 28 25 28C 29.6 28 32.599998 24 33.599998 19.6C 34.599998 15 29.6 10.6 25 11C 20.4 11.4 18 15 16.6 19.6"></path><path d="M 42.810001 50.462002C 41.833622 51.438122 40.250832 51.437984 39.27462 50.461689C 38.298416 49.485397 38.298416 47.902603 39.27462 46.926311C 40.250832 45.95002 41.833622 45.949879 42.810001 46.925999C 43.785519 47.902821 43.785519 49.48518 42.810001 50.462002ZM 48.096001 45.883999L 56.706001 37.293999C 56.894161 37.106426 56.999943 36.851685 57 36.585999L 57 34C 57 33.447716 56.552284 33 56 33L 53.400002 33C 53.144054 32.999924 52.89782 33.097984 52.712002 33.274002L 43.854 41.641998C 40.328316 40.148323 36.238579 41.362339 34.098885 44.53775C 31.959192 47.713158 32.369568 51.959496 35.077744 54.666393C 37.785919 57.373291 42.032452 57.78167 45.206848 55.64048C 48.381248 53.49929 49.593338 49.408978 48.098 45.883999ZM 27 45L 11 45C 10.999902 39.114559 14.680733 33.857452 20.211155 31.844276C 25.741575 29.831099 31.940599 31.491751 35.723999 36M 17.676001 15.184C 20.335285 17.942579 24.002348 19.500668 27.834 19.5C 29.755585 19.50161 31.657206 19.11026 33.421997 18.349998M 16.5 19.5C 16.5 24.19442 20.30558 28 25 28C 29.69442 28 33.5 24.19442 33.5 19.5C 33.5 14.80558 29.69442 11 25 11C 20.30558 11 16.5 14.80558 16.5 19.5Z"></path></g></g></g><g id="g-root-tx_projectc_qp12lp1f3damn-stroke" data-item-order="0" data-item-id="tx_projectc_qp12lp1f3damn" data-item-class="Label Stroke Indexed ColorStrokeGray" data-item-index="2" data-renderer-id="0" transform="translate(14, 158)"></g><g id="g-root-crea_8ydj711f3okjs-stroke" data-item-order="0" data-item-id="crea_8ydj711f3okjs" data-item-class="Icon Stroke Indexed ColorStrokeGray" data-item-index="2" data-renderer-id="0" transform="translate(158, 170)"><g id="crea_8ydj711f3okjs-stroke" fill="none" stroke-linecap="round" stroke-linejoin="round" stroke-miterlimit="4" stroke="#A3A3A3" stroke-width="2"><g><path d="M 39 30.799999C 36.599998 30.6 34 31.200001 32 32.799999C 31.799999 30.4 33.200001 28 34 25.799999C 38.799999 21 42.799999 15.4 48.200001 11.4C 48.599998 11.4 48.799999 11.2 49 11.2C 49.200001 11.2 49.599998 11.2 49.799999 11.4C 50.599998 12.8 52 14 53.200001 15C 53.599998 15.4 53.799999 16.200001 53.200001 16.4C 47.599998 20.200001 43.400002 25.799999 39 30.799999M 45 14.8C 46.400002 16.6 48.200001 18.200001 50 19.799999M 34 25.799999C 35.400002 27.799999 37.799999 28.799999 39 30.799999M 54 20.799999C 54.599998 20.799999 55.400002 20.799999 56 20.799999C 56.599998 20.799999 57 21.200001 57 21.799999C 55 33 56.799999 44.400002 57 55.799999C 57 56.400002 56.599998 57 56 56.799999C 42 52.400002 26.4 53.799999 12 56.799999C 11.4 57 11 56.400002 11 55.799999C 9.4 44.599998 10.8 33.200001 11 21.799999C 11 21.200001 11.4 21 12 20.799999C 18.799999 18 27 23 34 20.799999M 26 26.799999C 23.4 27 20.6 26.6 18 26.799999C 17.4 26.799999 17 27.200001 17 27.799999C 17.6 35.200001 17.4 42.400002 17 49.799999C 17 50.400002 17.4 51 18 50.799999C 23.4 49 29.4 50.799999 35 50.799999C 34.599998 48.599998 34.200001 46 35 43.799999C 35.200001 43.200001 35.400002 43 36 42.799999C 38.599998 42 41.599998 41.799999 44 42.799999C 44.599998 43 45 43.200001 45 43.799999C 45.400002 46.200001 44.599998 48.599998 45 50.799999C 46.599998 51.200001 48.400002 50.799999 50 50.799999C 50.599998 50.799999 51.200001 50.400002 51 49.799999C 48.400002 43 53 34.799999 51 27.799999M 35 46.799999C 38.400002 46.599998 41.799999 47.599998 45 46.799999M 35 50.799999C 38.400002 50.599998 41.799999 51.599998 45 50.799999M 17 36.799999C 20 37 23.200001 35.799999 26 36.799999M 42 38.799999C 45 39.599998 48 39.400002 51 38.799999M 42 34.799999C 45 35 48 34.799999 51 34.799999M 17 42.799999C 19.4 42.799999 21.799999 42.200001 24 42.799999C 24.6 43 24.799999 43.200001 25 43.799999C 25.799999 46 25.6 48.599998 25 50.799999"></path><path d="M 39 30.799999L 32 32.799999L 34 25.799999L 48.292 11.498C 48.479607 11.309916 48.734344 11.204212 49 11.204212C 49.265656 11.204212 49.520393 11.309916 49.708 11.498L 53.292 15.084C 53.682381 15.4745 53.682381 16.1075 53.292 16.498001ZM 45 14.792L 50 19.792M 33.996002 25.793999L 38.996002 30.794001M 54 20.799999L 56 20.799999C 56.552284 20.799999 57 21.247715 57 21.799999L 57 55.799999C 57 56.352283 56.552284 56.799999 56 56.799999L 12 56.799999C 11.447716 56.799999 11 56.352283 11 55.799999L 11 21.799999C 11 21.247715 11.447716 20.799999 12 20.799999L 34 20.799999M 26 26.799999L 18 26.799999C 17.447716 26.799999 17 27.247715 17 27.799999L 17 49.799999C 17 50.352283 17.447716 50.799999 18 50.799999L 35 50.799999L 35 43.799999C 35 43.247715 35.447716 42.799999 36 42.799999L 44 42.799999C 44.552284 42.799999 45 43.247715 45 43.799999L 45 50.799999L 50 50.799999C 50.552284 50.799999 51 50.352283 51 49.799999L 51 27.799999M 35 46.793999L 45 46.793999M 35 50.793999L 45 50.793999M 17 36.793999L 26 36.793999M 42 38.793999L 51 38.793999M 42 34.793999L 51 34.793999M 17 42.799999L 24 42.799999C 24.552284 42.799999 25 43.247715 25 43.799999L 25 50.799999"></path></g></g></g><g id="g-root-tx_taskmana_zko2ul1f3d9ty-stroke" data-item-order="0" data-item-id="tx_taskmana_zko2ul1f3d9ty" data-item-class="Label Stroke Indexed ColorStrokeGray" data-item-index="3" data-renderer-id="0" transform="translate(14, 254)"></g><g id="g-root-task_8csq51f3n47a-stroke" data-item-order="0" data-item-id="task_8csq51f3n47a" data-item-class="Icon Stroke Indexed ColorStrokeGray" data-item-index="3" data-renderer-id="0" transform="translate(158, 254)"><g id="task_8csq51f3n47a-stroke" fill="none" stroke-linecap="round" stroke-linejoin="round" stroke-miterlimit="4" stroke="#A3A3A3" stroke-width="2"><g><path d="M 46 15C 47.400002 14.8 48.799999 15.4 50 15C 51 14.8 52.400002 16 52 17C 48 29 51.799999 42.400002 52 55C 52 56.200001 51 57 50 57C 39.400002 56 28.6 55.400002 18 57C 17 57.200001 16 56 16 55C 15.6 42.400002 18.4 29.4 16 17C 15.8 16 17 14.8 18 15C 19.4 15.2 20.6 15 22 15M 38 15C 37.599998 12.8 36.200001 10.4 34 11C 31.799999 11.6 29.6 12.8 30 15C 28.6 14.8 27.4 15 26 15C 25.4 17 26.6 19.200001 26 21C 31.200001 22.6 36.799999 22.4 42 21C 42 19 41.400002 17 42 15C 40.599998 15 39.200001 14.6 38 15M 26 19C 24.4 19.6 22.6 19.200001 21 19C 20.4 19 20 19.4 20 20C 18.799999 30.6 19.6 41.400002 20 52C 20 52.599998 20.4 53 21 53C 27.200001 53.599998 34 55.200001 40 53C 40.599998 50.799999 39.200001 48.200001 40 46C 40.200001 45.400002 40.400002 45 41 45C 43.400002 44.599998 45.799999 45.400002 48 45C 50 36.799999 48.200001 28.4 48 20C 48 19.4 47.599998 19 47 19C 45.400002 18.799999 43.599998 19.200001 42 19M 48 45C 45.200001 47.400002 42.599998 50.400002 40 53M 26 32C 26.4 31.4 26.799999 30.799999 27.6 30.4C 28.200001 30.200001 28.6 29.799999 29.200001 29.799999C 29.6 29.799999 30.200001 30.200001 30.6 30.6C 31 31 31.4 31 32 31.200001C 32.599998 31.4 33.200001 31 33.400002 30.6C 33.799999 30 34.400002 29.799999 35 29.799999C 35.599998 29.799999 36.200001 30.200001 36.599998 30.6C 37 31 37.400002 31.200001 38 31.200001C 38.599998 31 39.200001 31 39.400002 30.6C 39.799999 30 40.400002 29.6 41 29M 26 40C 26.6 39.799999 27 38.799999 27.6 38.400002C 28 38.200001 28.6 37.599998 29.200001 37.799999C 29.6 38 30.4 38 30.6 38.599998C 30.799999 39 31.4 39 32 39.200001C 32.599998 39.400002 33 38.799999 33.400002 38.599998C 33.599998 38 34.400002 37.799999 35 37.799999C 35.599998 37.799999 36.400002 38 36.599998 38.599998C 36.799999 39 37.599998 39 38 39.200001C 38.400002 39.400002 39 39 39.400002 38.599998C 40 38 40.400002 37.599998 41 37"></path><path d="M 46 15L 50 15C 51.104568 15 52 15.895431 52 17L 52 55C 52 56.104568 51.104568 57 50 57L 18 57C 16.895432 57 16 56.104568 16 55L 16 17C 16 15.895431 16.895432 15 18 15L 22 15M 38 15C 38 12.790861 36.209137 11 34 11C 31.790861 11 30 12.790861 30 15L 26 15L 26 21L 42 21L 42 15ZM 26 19L 21 19C 20.447716 19 20 19.447716 20 20L 20 52C 20 52.552284 20.447716 53 21 53L 40 53L 40 46C 40 45.447716 40.447716 45 41 45L 48 45L 48 20C 48 19.447716 47.552284 19 47 19L 42 19M 48 45L 40 53M 26 32L 27.58 30.42C 27.98218 30.008879 28.541882 29.790789 29.116192 29.821419C 29.6905 29.852049 30.223829 30.128433 30.58 30.58C 30.955534 30.958626 31.466724 31.171597 32 31.171597C 32.533276 31.171597 33.044464 30.958626 33.419998 30.58C 33.798851 30.091841 34.38208 29.806213 35 29.806213C 35.61792 29.806213 36.201149 30.091841 36.580002 30.58C 36.955536 30.958626 37.466724 31.171597 38 31.171597C 38.533276 31.171597 39.044464 30.958626 39.419998 30.58L 41 29M 26 40L 27.58 38.419998C 27.98218 38.008881 28.541882 37.790787 29.116192 37.821419C 29.6905 37.852051 30.223829 38.128433 30.58 38.580002C 30.955534 38.958626 31.466724 39.171597 32 39.171597C 32.533276 39.171597 33.044464 38.958626 33.419998 38.580002C 33.798851 38.091843 34.38208 37.806213 35 37.806213C 35.61792 37.806213 36.201149 38.091843 36.580002 38.580002C 36.955536 38.958626 37.466724 39.171597 38 39.171597C 38.533276 39.171597 39.044464 38.958626 39.419998 38.580002L 41 37"></path></g></g></g><g id="g-root-cog_qvwajx1f3n6dc-stroke" data-item-order="0" data-item-id="cog_qvwajx1f3n6dc" data-item-class="Icon Stroke ColorStrokeGray" data-item-index="none" data-renderer-id="0" transform="translate(482, 296)"><g id="cog_qvwajx1f3n6dc-stroke" fill="none" stroke-linecap="round" stroke-linejoin="round" stroke-miterlimit="4" stroke="#A3A3A3" stroke-width="2"><g><path d="M 11 19C 23.799999 17 37 20.6 49.799999 19M 11 36C 16.4 34.200001 22.4 35.200001 28.200001 36M 11 27.4C 20 28.6 29.200001 27.4 38.200001 27.4M 26.799999 19C 27.200001 27.6 27.799999 36.200001 26.799999 44.799999M 38.200001 19C 38.799999 22.4 39 26 38.200001 29.4M 45.200001 46.200001C 46.400002 46 47.400002 45.400002 48.200001 44.400002C 48.799999 43.400002 48.599998 41.799999 47.599998 41C 46.599998 40.400002 45.200001 39.599998 44.200001 40.400002C 43.200001 41 42.400002 42 42.200001 43.200001C 42.200001 44 42.799999 44.599998 43.200001 45.400002C 43.400002 46 44.400002 46 45.200001 46.200001M 47.799999 31.4C 48 32.400002 48.200001 33.400002 48.599998 34.400002C 49 35.200001 49.799999 35.599998 50.799999 35.799999C 51.799999 35.799999 52.799999 35 53.799999 35C 55 35.200001 56.400002 35.200001 56.599998 36.400002C 56.799999 37.599998 57.200001 38.799999 56.200001 39.599998C 55.400002 40.200001 54.799999 41 54.200001 41.799999C 53.599998 42.599998 53.799999 43.599998 54.200001 44.599998C 54.599998 45.599998 55.799999 46 56.200001 46.799999C 56.799999 48 57 49 56.599998 50.200001C 56.400002 51.200001 55 51.799999 53.799999 51.400002C 52.799999 51.200001 52 50.599998 51 50.799999C 49.799999 50.799999 49.200001 51.200001 48.599998 52.200001C 48 53 48 54 47.799999 55C 47.400002 56.200001 46.400002 56.799999 45.200001 57C 44 57.200001 43.200001 56.200001 42.799999 55C 42.400002 54.200001 42.200001 53 41.799999 52C 41.400002 51.200001 40.599998 50.799999 39.599998 50.599998C 38.599998 50.599998 37.599998 51.200001 36.599998 51.400002C 35.599998 51.599998 34 51.200001 33.799999 50C 33.599998 49 33.400002 47.799999 34.200001 46.799999C 34.799999 46.200001 35.799999 45.599998 36.200001 44.599998C 36.599998 43.599998 36.799999 42.599998 36.200001 41.799999C 35.599998 41 34.599998 40.400002 34.200001 39.599998C 33.799999 38.400002 33.400002 37.400002 33.799999 36.400002C 34.200001 35.200001 35.599998 34.400002 36.599998 35C 37.599998 35.400002 38.599998 35.599998 39.599998 35.799999C 40.599998 35.799999 41.799999 35.400002 41.799999 34.400002C 41.799999 33.200001 42.599998 32.400002 42.799999 31.4C 43 30.200001 44.200001 29.799999 45.200001 29.4C 46.400002 29 47.200001 30.200001 47.799999 31.4M 26.4 44.799999C 22.6 45.200001 18.799999 45.200001 15.2 44.799999C 12.8 44.400002 10.8 43 11 40.599998C 11.8 32.200001 11.8 23.6 11 15C 10.8 12.8 12.8 11.2 15.2 11C 25.200001 10 35.599998 10.4 45.799999 11C 48 11.2 50 12.8 49.799999 15C 49.799999 18.4 50.599998 21.799999 49.799999 25"></path><path d="M 11.002 18.98L 49.866001 18.98M 11.002 35.956001L 28.110001 35.956001M 11.002 27.48L 38.256001 27.48M 26.875999 18.98L 26.875999 44.740002M 38.256001 18.98L 38.256001 29.403999M 45.23 46.27C 46.481884 46.321423 47.6394 45.606922 48.15453 44.464771C 48.669659 43.322624 48.439022 41.98204 47.571808 41.077713C 46.704597 40.173386 45.374851 39.886803 44.212132 40.353645C 43.049408 40.82048 42.287052 41.94706 42.285999 43.199997C 42.267239 43.998089 42.567341 44.770741 43.119884 45.346928C 43.672424 45.923119 44.431828 46.255322 45.23 46.27ZM 47.728001 31.348L 48.596001 34.316002C 48.862206 35.326576 49.880409 35.945278 50.900002 35.716L 53.790001 35.017998C 54.927731 34.763302 56.095905 35.297112 56.647999 36.323997C 57.221844 37.368797 57.079494 38.661156 56.292 39.556L 54.268002 41.821999C 53.568047 42.618015 53.568047 43.809986 54.268002 44.605999L 56.292 46.877998C 57.078148 47.772022 57.219707 49.062847 56.646 50.105999C 56.094482 51.126347 54.93145 51.655144 53.799999 51.400002L 50.91 50.703999C 49.890228 50.473614 48.871307 51.092751 48.605999 52.104L 47.737999 55.066002C 47.443638 56.205982 46.415371 57.00246 45.238003 57.00246C 44.060631 57.00246 43.032364 56.205982 42.737999 55.066002L 41.870003 52.098C 41.603794 51.087421 40.58559 50.468723 39.566002 50.697998L 36.678001 51.396C 35.540466 51.654018 34.370911 51.119198 33.821999 50.09C 33.248291 49.046848 33.389851 47.756023 34.176003 46.862L 36.188 44.599998C 36.889729 43.804657 36.889729 42.611343 36.188004 41.816002L 34.166 39.543999C 33.377716 38.650291 33.235275 37.357933 33.809998 36.313999C 34.359127 35.283955 35.529823 34.748993 36.667999 35.008003L 39.556 35.706001C 40.575592 35.93528 41.593796 35.316578 41.860001 34.306L 42.728001 31.336C 43.025089 30.196716 44.055271 29.402695 45.232647 29.405519C 46.410027 29.408346 47.436386 30.207304 47.728001 31.348001ZM 26.346001 44.731998L 15.102 44.731998C 12.84426 44.731998 11.014 42.901741 11.014 40.643997L 11.014 15.087999C 11.014 12.830259 12.84426 11 15.101999 11L 45.768002 11C 48.025738 11 49.855999 12.830259 49.855999 15.087999L 49.855999 25.026001"></path></g></g></g><g id="g-root-tx_projectm_v2z5gt1f3dblu-stroke" data-item-order="0" data-item-id="tx_projectm_v2z5gt1f3dblu" data-item-class="Label Stroke ColorStrokeGray" data-item-index="none" data-renderer-id="0" transform="translate(542, 284)"></g><g id="g-root-tx_visualpr_1cvi44t1f3dbet-stroke" data-item-order="0" data-item-id="tx_visualpr_1cvi44t1f3dbet" data-item-class="Label Stroke Indexed ColorStrokeGray" data-item-index="4" data-renderer-id="0" transform="translate(2, 338)"></g><g id="g-root-targ_8x4l0t1f3oido-stroke" data-item-order="0" data-item-id="targ_8x4l0t1f3oido" data-item-class="Icon Stroke Indexed ColorStrokeGray" data-item-index="4" data-renderer-id="0" transform="translate(158, 338)"><g id="targ_8x4l0t1f3oido-stroke" fill="none" stroke-linecap="round" stroke-linejoin="round" stroke-miterlimit="4" stroke="#A3A3A3" stroke-width="2"><g><path d="M 52 30.200001C 52.400002 42.599998 38.200001 55 34.599998 56.599998C 34.200001 56.799999 33.799999 56.799999 33.400002 56.599998C 29.6 55.400002 17 42.599998 16 30.200001C 15.2 19.6 23.799999 13.8 34 11.2C 44.200001 8.6 53.599998 19.799999 52 30.200001M 26 29.200001C 25.799999 33.599998 29.6 36.799999 34 37.200001C 38.400002 37.400002 40.599998 33.400002 42 29.200001C 43.400002 25 38.400002 21 34 21.200001C 29.6 21.200001 27.6 25 26 29.200001M 34 16.200001C 34 18.799999 33.799999 21.4 34 24.200001M 20 29.200001C 23 29.4 26.200001 28.4 29 29.200001M 34 43.200001C 33.200001 40.200001 34.599998 37 34 34.200001M 47 29.200001C 44.400002 29 41.599998 29.6 39 29.200001"></path><path d="M 52 30.125999C 52 42.580002 37.757999 54.242001 34.610001 56.666C 34.250435 56.942799 33.749565 56.942799 33.389999 56.666C 30.243999 54.243999 16 42.580002 16 30.125999C 16 19.633999 23.506001 11.126 34 11.126C 44.493999 11.126 52 19.633999 52 30.125999ZM 26 29.125999C 26 33.544277 29.581722 37.125999 34 37.125999C 38.418278 37.125999 42 33.544277 42 29.125999C 42 24.707722 38.418278 21.125999 34 21.125999C 29.581722 21.125999 26 24.707722 26 29.125999ZM 34 16.125999L 34 24.125999M 20 29.125999L 29 29.125999M 34 43.125999L 34 34.125999M 47 29.125999L 39 29.125999"></path></g></g></g><g id="g-root-tx_progress_1q6ymi51f3d9tw-stroke" data-item-order="0" data-item-id="tx_progress_1q6ymi51f3d9tw" data-item-class="Label Stroke Indexed ColorStrokeGray" data-item-index="5" data-renderer-id="0" transform="translate(50, 422)"></g><g id="g-root-2_1hby3cd1f3oi6m-stroke" data-item-order="0" data-item-id="2_1hby3cd1f3oi6m" data-item-class="Icon Stroke Indexed ColorStrokeGray" data-item-index="5" data-renderer-id="0" transform="translate(158, 422)"><g id="2_1hby3cd1f3oi6m-stroke" fill="none" stroke-linecap="round" stroke-linejoin="round" stroke-miterlimit="4" stroke="#A3A3A3" stroke-width="2"><g><path d="M 43 14C 45 13.8 47 14.2 49 14C 49 16 49.599998 18 49 20M 12 28C 14.2 25.200001 17.799999 24 20.6 22C 21.4 21.4 22.4 21.6 23.200001 22.200001C 23.4 22.4 23.6 22.6 23.799999 22.799999C 24.6 23.4 25.799999 23.799999 26.4 23C 27.6 21.6 29.200001 20.799999 30.799999 19.799999C 31.6 19.4 32.400002 19.4 33.200001 20C 34.200001 20.6 35.200001 21 35.799999 22C 36.200001 22.799999 37.599998 22.799999 38.200001 22C 41.200001 18.799999 44.799999 15.6 49 14M 19 47C 19 46.400002 18.6 45.799999 18 46C 16.799999 46.400002 15.4 46 14 46C 13.4 46 13.2 46.400002 13 47C 12.2 49.200001 12.4 51.799999 13 54C 15 53.400002 17 54 19 54C 19.4 51.799999 19.200001 49.400002 19 47M 31 37C 31 36.400002 30.6 36.200001 30 36C 28.799999 35.599998 27.4 35.799999 26 36C 25.4 36 24.799999 36.400002 25 37C 26.200001 42.599998 25.799999 48.400002 25 54C 27 54.599998 29.200001 53.200001 31 54C 30.4 48.400002 31.200001 42.599998 31 37M 43 43C 43 42.400002 42.599998 41.799999 42 42C 40.799999 42.400002 39.200001 41.599998 38 42C 37.400002 42.200001 36.799999 42.400002 37 43C 38 46.599998 36.400002 50.400002 37 54C 39 54 41.200001 53.200001 43 54C 42 50.400002 41.799999 46.400002 43 43M 55 27C 55 26.4 54.599998 26.200001 54 26C 52.599998 25.799999 51.400002 26 50 26C 49.400002 26 49 26.4 49 27C 48.400002 36 47.200001 45.200001 49 54C 51 53.799999 53 54.400002 55 54C 57.200001 45.200001 55 36 55 27M 11 54C 26.200001 55.200001 42 50.400002 57 54"></path><path d="M 43.007999 14L 49.007999 14L 49.007999 20M 12 28L 20.633999 21.962C 21.428761 21.406044 22.50787 21.500465 23.194 22.186001L 23.810001 22.802C 24.50103 23.493176 25.590389 23.583675 26.386 23.015999L 30.785999 19.880001C 31.513363 19.360348 32.497242 19.386477 33.195999 19.944L 35.795998 22.032C 36.5084 22.602013 37.516266 22.617645 38.246002 22.07L 49 14M 19 47C 19 46.447716 18.552284 46 18 46L 14 46C 13.447716 46 13 46.447716 13 47L 13 54L 19 54ZM 31 37C 31 36.447716 30.552284 36 30 36L 26 36C 25.447716 36 25 36.447716 25 37L 25 54L 31 54ZM 43 43C 43 42.447716 42.552284 42 42 42L 38 42C 37.447716 42 37 42.447716 37 43L 37 54L 43 54ZM 55 27C 55 26.447716 54.552284 26 54 26L 50 26C 49.447716 26 49 26.447716 49 27L 49 54L 55 54ZM 11.008 54L 57.007999 54"></path></g></g></g><g id="g-root-tx_collabor_4golt91f3dblv-stroke" data-item-order="0" data-item-id="tx_collabor_4golt91f3dblv" data-item-class="Label Stroke Indexed ColorStrokeGray" data-item-index="6" data-renderer-id="0" transform="translate(2, 506)"></g><g id="g-root-shar_1cu95yl1f3ojyi-stroke" data-item-order="0" data-item-id="shar_1cu95yl1f3ojyi" data-item-class="Icon Stroke Indexed ColorStrokeGray" data-item-index="6" data-renderer-id="0" transform="translate(158, 506)"><g id="shar_1cu95yl1f3ojyi-stroke" fill="none" stroke-linecap="round" stroke-linejoin="round" stroke-miterlimit="4" stroke="#A3A3A3" stroke-width="2"><g><path d="M 31.799999 34C 31.4 35.200001 32.799999 36.400002 34 36.200001C 35.200001 36.200001 35.799999 35.200001 36.200001 34C 36.599998 32.799999 35.200001 32 34 31.799999C 32.799999 31.6 32.200001 32.799999 31.799999 34M 35.799999 25.4C 36 26.200001 36.200001 27 36.599998 27.6C 37 28.200001 37.599998 28.799999 38.200001 28.6C 39 28.200001 39.799999 28.4 40.400002 28C 41.200001 27.6 42.400002 28.200001 42.599998 29C 42.799999 29.799999 43 30.799999 42.400002 31.4C 41.799999 31.799999 41.400002 32.400002 40.799999 33C 40.200001 33.599998 40.400002 34.400002 40.799999 35C 41.200001 35.599998 42 36 42.400002 36.599998C 42.799999 37.400002 43 38.200001 42.599998 39C 42.400002 39.799999 41.400002 40 40.400002 40C 39.799999 39.799999 39 39.799999 38.200001 39.400002C 37.599998 39.200001 37 39.799999 36.599998 40.400002C 36.200001 41 36 41.799999 35.799999 42.599998C 35.599998 43.400002 34.799999 44.200001 34 44C 33.200001 43.799999 32.599998 43.400002 32.200001 42.599998C 31.799999 42 31.799999 41 31.4 40.400002C 31 39.799999 30.4 39.200001 29.799999 39.400002C 29 39.799999 28.200001 39.599998 27.6 40C 26.799999 40.400002 25.799999 39.799999 25.4 39C 25 38.200001 25.4 37.400002 25.6 36.599998C 26 36 26.6 35.400002 27.200001 35C 27.799999 34.599998 27.6 33.599998 27.200001 33C 26.799999 32.400002 26.200001 31.799999 25.6 31.4C 24.799999 31 24.799999 29.6 25.4 29C 26 28.4 26.799999 27.6 27.6 28C 28.200001 28.4 29 28.200001 29.799999 28.6C 30.4 29 31.200001 28.200001 31.4 27.6C 31.799999 26.799999 31.799999 26 32.200001 25.4C 32.599998 24.6 33.200001 23.799999 34 24C 34.799999 24.200001 35.799999 24.6 35.799999 25.4M 31.6 13.6C 31.4 14.8 32.599998 16.200001 34 16C 35.400002 15.8 37 14.8 36.599998 13.6C 36 12.2 35.200001 10.6 34 11C 32.599998 11.4 31.200001 12.2 31.6 13.6M 34 21C 33.799999 19.4 34 17.6 34 16M 46 19.6C 46 20.799999 47.200001 22.200001 48.400002 22C 49.799999 21.799999 50.799999 20.799999 51 19.6C 51.200001 18.200001 49.799999 16.6 48.400002 17C 47.200001 17.4 46.200001 18.200001 46 19.6M 43.200001 24.799999C 44.599998 24 45.200001 22 46.799999 21.200001M 52 34C 52 35.400002 53.200001 36.200001 54.599998 36.599998C 55.799999 36.799999 56.599998 35.400002 57 34C 57.400002 32.599998 55.799999 31.4 54.599998 31.6C 53.200001 31.6 52.400002 32.599998 52 34M 47 34C 48.599998 33.799999 50.400002 34.200001 52 34M 46 48.400002C 46 49.799999 47.200001 50.599998 48.400002 51C 49.799999 51.400002 50.799999 49.799999 51 48.400002C 51.200001 47.200001 49.799999 46.200001 48.400002 46C 47.200001 45.799999 46 47.200001 46 48.400002M 43.200001 43.200001C 44.400002 44.200001 45.599998 45.599998 46.799999 46.799999M 31.6 54.599998C 31.200001 55.799999 32.599998 57.200001 34 57C 35.400002 56.799999 36.799999 55.799999 36.599998 54.599998C 36.200001 53.200001 35.400002 52.200001 34 52C 32.599998 51.799999 31 53.200001 31.6 54.599998M 34 47C 33.400002 48.599998 33.400002 50.400002 34 52M 17 48.400002C 17.200001 49.799999 18.200001 51 19.6 51C 20.799999 51 22.200001 49.799999 22 48.400002C 21.799999 47.200001 20.799999 46.400002 19.6 46C 18.200001 45.599998 16.6 47.200001 17 48.400002M 24.799999 43.200001C 24 44.599998 22.6 45.799999 21.200001 46.799999M 11 34C 10.8 35.400002 12.2 36.400002 13.6 36.599998C 14.8 36.599998 16.6 35.200001 16 34C 15.4 32.799999 14.8 31.6 13.6 31.6C 12.2 31.4 11.2 32.599998 11 34M 21 34C 19.4 34.200001 17.6 34.400002 16 34M 17 19.6C 17.4 20.799999 18.200001 22.4 19.6 22C 20.799999 21.6 22.200001 20.799999 22 19.6C 21.799999 18.200001 20.799999 17 19.6 17C 18.200001 17 17.200001 18.200001 17 19.6M 24.799999 24.799999C 23.6 23.799999 22.4 22.4 21.200001 21.200001"></path><path d="M 31.77 33.993999C 31.769695 35.222496 32.765503 36.218548 33.993999 36.218548C 35.222496 36.218548 36.2183 35.222496 36.217999 33.993999C 36.2183 32.765503 35.222496 31.769449 33.993999 31.769449C 32.765503 31.769449 31.769695 32.765503 31.769999 33.993999M 35.884003 25.4L 36.538002 27.552C 36.76149 28.293404 37.521187 28.734884 38.276001 28.562L 40.459999 28.056C 41.308647 27.865732 42.182285 28.250364 42.615021 29.004784C 43.047756 29.759203 42.938694 30.70751 42.346001 31.344L 40.82 32.989998C 40.292 33.559822 40.292 34.440178 40.82 35.010002L 42.346001 36.655998C 42.939369 37.292713 43.048489 38.24181 42.615097 38.996574C 42.181705 39.751335 41.307007 40.135513 40.458 39.944L 38.276001 39.438C 37.520523 39.263924 36.759529 39.705654 36.535999 40.447998L 35.882 42.599998C 35.631947 43.434402 34.864067 44.005905 33.993 44.005905C 33.121933 44.005905 32.354053 43.434402 32.104 42.599998L 31.450001 40.445999C 31.225639 39.704308 30.465315 39.26297 29.709999 39.435997L 27.528 39.942001C 26.679483 40.131668 25.806244 39.747353 25.372948 38.993557C 24.939655 38.239761 25.047054 37.291756 25.638 36.653999L 27.164 35.007999C 27.692001 34.438179 27.692001 33.557823 27.164 32.987999L 25.638 31.341999C 25.046385 30.704016 24.938927 29.755222 25.372875 29.001087C 25.806826 28.246952 26.681128 27.863089 27.529999 28.053999L 29.718 28.559999C 30.473475 28.734074 31.23447 28.292345 31.458 27.549999L 32.112 25.4C 32.367599 24.572884 33.132294 24.00882 33.998001 24.00882C 34.863708 24.00882 35.628399 24.572884 35.883999 25.4ZM 31.5 13.5C 31.5 14.880713 32.619289 16 34 16C 35.380714 16 36.5 14.880713 36.5 13.5C 36.5 12.119288 35.380714 11 34 11C 32.619289 11 31.5 12.119288 31.5 13.5M 34 21L 34 16M 45.995998 19.504C 45.996002 20.884712 47.115288 22.004 48.496002 22.004C 49.876713 22.004 50.996002 20.884712 50.996002 19.504C 50.996002 18.123287 49.876713 17.004 48.496002 17.004C 47.115288 17.004 45.996002 18.123287 45.996002 19.504M 43.192001 24.807999L 46.728001 21.271999M 52 34C 52 35.380714 53.119289 36.5 54.5 36.5C 55.880714 36.5 57 35.380714 57 34C 57 32.619289 55.880714 31.5 54.5 31.5C 53.119289 31.5 52 32.619289 52 34M 47 34L 52 34M 45.995998 48.495998C 45.996002 49.876713 47.115288 50.996002 48.496002 50.996002C 49.876713 50.996002 50.996002 49.876713 50.996002 48.496002C 50.996002 47.115288 49.876713 45.996002 48.496002 45.996002C 47.115288 45.996002 45.996002 47.115288 45.996002 48.496002M 43.192001 43.192001L 46.728001 46.728001M 31.5 54.5C 31.5 55.880714 32.619289 57 34 57C 35.380714 57 36.5 55.880714 36.5 54.5C 36.5 53.119289 35.380714 52 34 52C 32.619289 52 31.5 53.119289 31.5 54.5M 34 47L 34 52M 17.004 48.495998C 17.004 49.876713 18.123287 50.996002 19.504 50.996002C 20.884712 50.996002 22.004 49.876713 22.004 48.496002C 22.004 47.115288 20.884712 45.996002 19.504 45.996002C 18.123287 45.996002 17.004 47.115288 17.004 48.496002M 24.807999 43.192001L 21.271999 46.728001M 11 34C 11 35.380714 12.119288 36.5 13.5 36.5C 14.880713 36.5 16 35.380714 16 34C 16 32.619289 14.880713 31.5 13.5 31.5C 12.119288 31.5 11 32.619289 11 34M 21 34L 16 34M 17.004 19.504C 17.004 20.884712 18.123287 22.004 19.504 22.004C 20.884712 22.004 22.004 20.884712 22.004 19.504C 22.004 18.123287 20.884712 17.004 19.504 17.004C 18.123287 17.004 17.004 18.123287 17.004 19.504M 24.807999 24.807999L 21.271999 21.271999"></path></g></g></g></g></g></svg>