<?xml version="1.0" encoding="utf-8" standalone="yes"?>
<!DOCTYPE svg PUBLIC "-//W3C//DTD SVG 1.1//EN" "http://www.w3.org/Graphics/SVG/1.1/DTD/svg11.dtd">
<svg width="722" height="356" viewBox="0 0 722 356" style="fill:none;stroke:none;fill-rule:evenodd;clip-rule:evenodd;stroke-linecap:round;stroke-linejoin:round;stroke-miterlimit:1.5;" version="1.1" xmlns="http://www.w3.org/2000/svg" xmlns:xlink="http://www.w3.org/1999/xlink"><style id="fontImports">@import url("https://fonts.googleapis.com/css2?family=Roboto:wght@400;700&amp;display=block");</style><rect id="" x="0" y="0" width="722" height="356" style="fill: #2c2c2c;"></rect><g id="items" style="isolation: isolate"><g id="blend" style="mix-blend-mode:screen"><g id="g-root-ro_1d1rnfg1ghe2h4-fill" data-item-order="-27000" data-item-id="ro_1d1rnfg1ghe2h4" data-item-class="Shape Stroke Fill" data-item-index="none" data-renderer-id="0" transform="translate(243, 81)"><g id="ro_1d1rnfg1ghe2h4-fill" stroke="none" fill="#505050"><g><path d="M 34 10L 166 10C 166 10 190 10 190 34L 190 136C 190 136 190 160 166 160L 34 160C 34 160 10 160 10 136L 10 34C 10 34 10 10 34 10"></path></g></g></g><g id="g-root-ro_24xgc1ghiayx-fill" data-item-order="-12312" data-item-id="ro_24xgc1ghiayx" data-item-class="Shape Stroke Fill" data-item-index="none" data-renderer-id="0" transform="translate(471, 69)"><g id="ro_24xgc1ghiayx-fill" stroke="none" fill="#5a3f27"><g><path d="M 22 10L 226 10C 226 10 238 10 238 22L 238 52C 238 52 238 64 226 64L 22 64C 22 64 10 64 10 52L 10 22C 10 22 10 10 22 10"></path></g></g></g><g id="g-root-ro_w2fw1gh4a30-fill" data-item-order="-10368" data-item-id="ro_w2fw1gh4a30" data-item-class="Shape Stroke Fill" data-item-index="none" data-renderer-id="0" transform="translate(3, 3)"><g id="ro_w2fw1gh4a30-fill" stroke="none" fill="#293f64"><g><path d="M 22 10L 190 10C 190 10 202 10 202 22L 202 52C 202 52 202 64 190 64L 22 64C 22 64 10 64 10 52L 10 22C 10 22 10 10 22 10"></path></g></g></g><g id="g-root-tx_title_1unfhb01ghibk2-fill" data-item-order="0" data-item-id="tx_title_1unfhb01ghibk2" data-item-class="Label Stroke" data-item-index="none" data-renderer-id="0" transform="translate(99, 69)"><g id="tx_title_1unfhb01ghibk2-fill" stroke="none" fill="#A3A3A3"><g><text style="font: 20px Roboto, sans-serif; white-space: pre;"><tspan x="14.61" y="34" dominant-baseline="ideographic">Title</tspan></text></g></g></g><g id="g-root-cu_1hbcl0c1gh493i-fill" data-item-order="0" data-item-id="cu_1hbcl0c1gh493i" data-item-class="Curve Stroke ColorFillBlack ColorStrokeBlack" data-item-index="none" data-renderer-id="0" transform="translate(153, 57)"></g><g id="g-root-cu_1lr634s1gh4935-fill" data-item-order="0" data-item-id="cu_1lr634s1gh4935" data-item-class="Curve Stroke ColorFillBlack ColorStrokeBlack" data-item-index="none" data-renderer-id="0" transform="translate(153, 57)"></g><g id="g-root-cu_1cvj2vw1gh49vv-fill" data-item-order="0" data-item-id="cu_1cvj2vw1gh49vv" data-item-class="Curve Stroke ColorFillBlack ColorStrokeBlack" data-item-index="none" data-renderer-id="0" transform="translate(153, 57)"></g><g id="g-root-cu_zkp1lo1gh48b3-fill" data-item-order="0" data-item-id="cu_zkp1lo1gh48b3" data-item-class="Curve Stroke ColorFillBlack ColorStrokeBlack" data-item-index="none" data-renderer-id="0" transform="translate(153, 57)"></g><g id="g-root-cu_140ijq41gh48ap-fill" data-item-order="0" data-item-id="cu_140ijq41gh48ap" data-item-class="Curve Stroke ColorFillBlack ColorStrokeBlack" data-item-index="none" data-renderer-id="0" transform="translate(153, 57)"></g><g id="g-root-cu_v4vjh81gh493f-fill" data-item-order="0" data-item-id="cu_v4vjh81gh493f" data-item-class="Curve Stroke ColorFillBlack ColorStrokeBlack" data-item-index="none" data-renderer-id="0" transform="translate(153, 57)"></g><g id="g-root-cu_1umt3do1gh47id-fill" data-item-order="0" data-item-id="cu_1umt3do1gh47id" data-item-class="Curve Stroke ColorFillBlack ColorStrokeBlack" data-item-index="none" data-renderer-id="0" transform="translate(195, 30)"></g><g id="g-root-task_dcckt81gh48i3-fill" data-item-order="0" data-item-id="task_dcckt81gh48i3" data-item-class="Icon Stroke" data-item-index="none" data-renderer-id="0" transform="translate(153, 15)"></g><g id="g-root-assi_ddlfto1ghi9e0-fill" data-item-order="0" data-item-id="assi_ddlfto1ghi9e0" data-item-class="Icon Stroke" data-item-index="none" data-renderer-id="0" transform="translate(483, 81)"></g><g id="g-root-tx_taskassi_qofh3w1ghiayv-fill" data-item-order="0" data-item-id="tx_taskassi_qofh3w1ghiayv" data-item-class="Label Stroke" data-item-index="none" data-renderer-id="0" transform="translate(519, 84)"><g id="tx_taskassi_qofh3w1ghiayv-fill" stroke="none" fill="#F99539"><g><text style="font: 20px Roboto, sans-serif; white-space: pre;"><tspan x="12.05" y="34" dominant-baseline="ideographic">Task Assignments</tspan></text></g></g></g><g id="g-root-tx_descript_1hclg0s1ghi9z7-fill" data-item-order="0" data-item-id="tx_descript_1hclg0s1ghi9z7" data-item-class="Label Stroke" data-item-index="none" data-renderer-id="0" transform="translate(39, 105)"><g id="tx_descript_1hclg0s1ghi9z7-fill" stroke="none" fill="#A3A3A3"><g><text style="font: 20px Roboto, sans-serif; white-space: pre;"><tspan x="13.41" y="34" dominant-baseline="ideographic">Description</tspan></text></g></g></g><g id="g-root-1_1hhl5jw1ghe1ov-fill" data-item-order="0" data-item-id="1_1hhl5jw1ghe1ov" data-item-class="Icon Stroke" data-item-index="none" data-renderer-id="0" transform="translate(309, 105)"></g><g id="g-root-cu_1q6zl981gh48ar-fill" data-item-order="0" data-item-id="cu_1q6zl981gh48ar" data-item-class="Curve Stroke ColorFillBlack ColorStrokeBlack" data-item-index="none" data-renderer-id="0" transform="translate(423, 96)"></g><g id="g-root-cu_qp21cs1gh49vs-fill" data-item-order="0" data-item-id="cu_qp21cs1gh49vs" data-item-class="Curve Stroke ColorFillBlack ColorStrokeBlack" data-item-index="none" data-renderer-id="0" transform="translate(495, 123)"></g><g id="g-root-cu_m9v0bg1gh47ib-fill" data-item-order="0" data-item-id="cu_m9v0bg1gh47ib" data-item-class="Curve Stroke ColorFillBlack ColorStrokeBlack" data-item-index="none" data-renderer-id="0" transform="translate(495, 123)"></g><g id="g-root-tx_status_18gyfrw1ghiarw-fill" data-item-order="0" data-item-id="tx_status_18gyfrw1ghiarw" data-item-class="Label Stroke" data-item-index="none" data-renderer-id="0" transform="translate(75, 141)"><g id="tx_status_18gyfrw1ghiarw-fill" stroke="none" fill="#A3A3A3"><g><text style="font: 20px Roboto, sans-serif; white-space: pre;"><tspan x="17.42" y="34" dominant-baseline="ideographic">Status</tspan></text></g></g></g><g id="g-root-tx_assignin_18itv181ghi9sa-fill" data-item-order="0" data-item-id="tx_assignin_18itv181ghi9sa" data-item-class="Label Stroke" data-item-index="none" data-renderer-id="0" transform="translate(519, 135)"><g id="tx_assignin_18itv181ghi9sa-fill" stroke="none" fill="#A3A3A3"><g><text style="font: 20px Roboto, sans-serif; white-space: pre;"><tspan x="15.54" y="34" dominant-baseline="ideographic">Assigning Tasks</tspan></text></g></g></g><g id="g-root-tx_taskmana_1usf6u41ghe39q-fill" data-item-order="0" data-item-id="tx_taskmana_1usf6u41ghe39q" data-item-class="Label Stroke" data-item-index="none" data-renderer-id="0" transform="translate(267, 159)"><g id="tx_taskmana_1usf6u41ghe39q-fill" stroke="none" fill="#A3A3A3"><g><text style="font: 20px Roboto, sans-serif; white-space: pre;"><tspan x="54.91" y="34" dominant-baseline="ideographic">Task </tspan><tspan x="17.12" y="58" dominant-baseline="ideographic">Management</tspan></text></g></g></g><g id="g-root-tx_duedates_v64eho1ghi971-fill" data-item-order="0" data-item-id="tx_duedates_v64eho1ghi971" data-item-class="Label Stroke" data-item-index="none" data-renderer-id="0" transform="translate(51, 177)"><g id="tx_duedates_v64eho1ghi971-fill" stroke="none" fill="#A3A3A3"><g><text style="font: 20px Roboto, sans-serif; white-space: pre;"><tspan x="12.44" y="34" dominant-baseline="ideographic">Due Dates</tspan></text></g></g></g><g id="g-root-tx_notifica_v7dcnw1ghibd7-fill" data-item-order="0" data-item-id="tx_notifica_v7dcnw1ghibd7" data-item-class="Label Stroke" data-item-index="none" data-renderer-id="0" transform="translate(519, 171)"><g id="tx_notifica_v7dcnw1ghibd7-fill" stroke="none" fill="#A3A3A3"><g><text style="font: 20px Roboto, sans-serif; white-space: pre;"><tspan x="13.19" y="34" dominant-baseline="ideographic">Notifications</tspan></text></g></g></g><g id="g-root-tx_priority_deudzw1ghibk6-fill" data-item-order="0" data-item-id="tx_priority_deudzw1ghibk6" data-item-class="Label Stroke" data-item-index="none" data-renderer-id="0" transform="translate(15, 213)"><g id="tx_priority_deudzw1ghibk6-fill" stroke="none" fill="#A3A3A3"><g><text style="font: 20px Roboto, sans-serif; white-space: pre;"><tspan x="13.62" y="34" dominant-baseline="ideographic">Priority Levels</tspan></text></g></g></g><g id="g-root-cu_1umt3do1gh47ig-fill" data-item-order="0" data-item-id="cu_1umt3do1gh47ig" data-item-class="Curve Stroke ColorFillBlack ColorStrokeBlack" data-item-index="none" data-renderer-id="0" transform="translate(333, 231)"></g><g id="g-root-tx_budgets_4jtuu41ghi973-fill" data-item-order="0" data-item-id="tx_budgets_4jtuu41ghi973" data-item-class="Label Stroke" data-item-index="none" data-renderer-id="0" transform="translate(63, 249)"><g id="tx_budgets_4jtuu41ghi973-fill" stroke="none" fill="#A3A3A3"><g><text style="font: 20px Roboto, sans-serif; white-space: pre;"><tspan x="15.29" y="34" dominant-baseline="ideographic">Budgets</tspan></text></g></g></g><g id="g-root-tx_taskcrea_qn6m3g1gh4a2y-fill" data-item-order="0" data-item-id="tx_taskcrea_qn6m3g1gh4a2y" data-item-class="Label Stroke" data-item-index="none" data-renderer-id="0" transform="translate(15, 18)"><g id="tx_taskcrea_qn6m3g1gh4a2y-fill" stroke="none" fill="#4F92FF"><g><text style="font: 20px Roboto, sans-serif; white-space: pre;"><tspan x="14.99" y="34" dominant-baseline="ideographic">Task Creation</tspan></text></g></g></g><g id="g-root-cu_18gc1uk1gh47id-fill" data-item-order="0" data-item-id="cu_18gc1uk1gh47id" data-item-class="Curve Stroke ColorFillBlack ColorStrokeBlack" data-item-index="none" data-renderer-id="0" transform="translate(153, 57)"></g><g id="g-root-ro_1d1rnfg1ghe2h4-stroke" data-item-order="-27000" data-item-id="ro_1d1rnfg1ghe2h4" data-item-class="Shape Stroke Fill" data-item-index="none" data-renderer-id="0" transform="translate(243, 81)"><g id="ro_1d1rnfg1ghe2h4-stroke" fill="none" stroke-linecap="round" stroke-linejoin="round" stroke-miterlimit="4" stroke="#A3A3A3" stroke-width="2"><g><path d="M 34 10L 166 10C 166 10 190 10 190 34L 190 136C 190 136 190 160 166 160L 34 160C 34 160 10 160 10 136L 10 34C 10 34 10 10 34 10"></path></g></g></g><g id="g-root-ro_24xgc1ghiayx-stroke" data-item-order="-12312" data-item-id="ro_24xgc1ghiayx" data-item-class="Shape Stroke Fill" data-item-index="none" data-renderer-id="0" transform="translate(471, 69)"><g id="ro_24xgc1ghiayx-stroke" fill="none" stroke-linecap="round" stroke-linejoin="round" stroke-miterlimit="4" stroke="#F99539" stroke-width="2"><g><path d="M 22 10L 226 10C 226 10 238 10 238 22L 238 52C 238 52 238 64 226 64L 22 64C 22 64 10 64 10 52L 10 22C 10 22 10 10 22 10"></path></g></g></g><g id="g-root-ro_w2fw1gh4a30-stroke" data-item-order="-10368" data-item-id="ro_w2fw1gh4a30" data-item-class="Shape Stroke Fill" data-item-index="none" data-renderer-id="0" transform="translate(3, 3)"><g id="ro_w2fw1gh4a30-stroke" fill="none" stroke-linecap="round" stroke-linejoin="round" stroke-miterlimit="4" stroke="#4F92FF" stroke-width="2"><g><path d="M 22 10L 190 10C 190 10 202 10 202 22L 202 52C 202 52 202 64 190 64L 22 64C 22 64 10 64 10 52L 10 22C 10 22 10 10 22 10"></path></g></g></g><g id="g-root-tx_title_1unfhb01ghibk2-stroke" data-item-order="0" data-item-id="tx_title_1unfhb01ghibk2" data-item-class="Label Stroke" data-item-index="none" data-renderer-id="0" transform="translate(99, 69)"></g><g id="g-root-cu_1hbcl0c1gh493i-stroke" data-item-order="0" data-item-id="cu_1hbcl0c1gh493i" data-item-class="Curve Stroke ColorFillBlack ColorStrokeBlack" data-item-index="none" data-renderer-id="0" transform="translate(153, 57)"><g id="cu_1hbcl0c1gh493i-stroke" fill="none" stroke-linecap="round" stroke-linejoin="round" stroke-miterlimit="4" stroke="#666666" stroke-width="2" stroke-dasharray="5.0, 7.0"><g><path d="M 28 10L 28 22L 28 34L 19 34L 10 34"></path></g></g></g><g id="g-root-cu_1lr634s1gh4935-stroke" data-item-order="0" data-item-id="cu_1lr634s1gh4935" data-item-class="Curve Stroke ColorFillBlack ColorStrokeBlack" data-item-index="none" data-renderer-id="0" transform="translate(153, 57)"><g id="cu_1lr634s1gh4935-stroke" fill="none" stroke-linecap="round" stroke-linejoin="round" stroke-miterlimit="4" stroke="#666666" stroke-width="2" stroke-dasharray="5.0, 7.0"><g><path d="M 28 10L 28 40L 28 70L 19 70L 10 70"></path></g></g></g><g id="g-root-cu_1cvj2vw1gh49vv-stroke" data-item-order="0" data-item-id="cu_1cvj2vw1gh49vv" data-item-class="Curve Stroke ColorFillBlack ColorStrokeBlack" data-item-index="none" data-renderer-id="0" transform="translate(153, 57)"><g id="cu_1cvj2vw1gh49vv-stroke" fill="none" stroke-linecap="round" stroke-linejoin="round" stroke-miterlimit="4" stroke="#666666" stroke-width="2" stroke-dasharray="5.0, 7.0"><g><path d="M 28 10L 28 58L 28 106L 19 106L 10 106"></path></g></g></g><g id="g-root-cu_zkp1lo1gh48b3-stroke" data-item-order="0" data-item-id="cu_zkp1lo1gh48b3" data-item-class="Curve Stroke ColorFillBlack ColorStrokeBlack" data-item-index="none" data-renderer-id="0" transform="translate(153, 57)"><g id="cu_zkp1lo1gh48b3-stroke" fill="none" stroke-linecap="round" stroke-linejoin="round" stroke-miterlimit="4" stroke="#666666" stroke-width="2" stroke-dasharray="5.0, 7.0"><g><path d="M 28 10L 28 94L 28 178L 19 178L 10 178"></path></g></g></g><g id="g-root-cu_140ijq41gh48ap-stroke" data-item-order="0" data-item-id="cu_140ijq41gh48ap" data-item-class="Curve Stroke ColorFillBlack ColorStrokeBlack" data-item-index="none" data-renderer-id="0" transform="translate(153, 57)"><g id="cu_140ijq41gh48ap-stroke" fill="none" stroke-linecap="round" stroke-linejoin="round" stroke-miterlimit="4" stroke="#666666" stroke-width="2" stroke-dasharray="5.0, 7.0"><g><path d="M 28 10L 28 112L 28 214L 19 214L 10 214"></path></g></g></g><g id="g-root-cu_v4vjh81gh493f-stroke" data-item-order="0" data-item-id="cu_v4vjh81gh493f" data-item-class="Curve Stroke ColorFillBlack ColorStrokeBlack" data-item-index="none" data-renderer-id="0" transform="translate(153, 57)"><g id="cu_v4vjh81gh493f-stroke" fill="none" stroke-linecap="round" stroke-linejoin="round" stroke-miterlimit="4" stroke="#666666" stroke-width="2" stroke-dasharray="5.0, 7.0"><g><path d="M 28 10L 28 40L 28 238C 27.999995 244.627423 22.627411 250.000006 15.999994 250.000006L 15.9 250L 10 250"></path></g></g></g><g id="g-root-cu_1umt3do1gh47id-stroke" data-item-order="0" data-item-id="cu_1umt3do1gh47id" data-item-class="Curve Stroke ColorFillBlack ColorStrokeBlack" data-item-index="none" data-renderer-id="0" transform="translate(195, 30)"><g id="cu_1umt3do1gh47id-stroke" fill="none" stroke-linecap="round" stroke-linejoin="round" stroke-miterlimit="4" stroke="#666666" stroke-width="2" stroke-dasharray="5.0, 7.0"><g><path d="M 58 111L 55 111L 54.9 111C 43.357245 110.999995 33.999997 101.642746 33.999997 90.099996L 34 90L 34 30.9C 33.999998 19.357248 24.64275 10 13.1 10L 13 10L 10 10"></path></g></g></g><g id="g-root-task_dcckt81gh48i3-stroke" data-item-order="0" data-item-id="task_dcckt81gh48i3" data-item-class="Icon Stroke" data-item-index="none" data-renderer-id="0" transform="translate(153, 15)"><g id="task_dcckt81gh48i3-stroke" fill="none" stroke-linecap="round" stroke-linejoin="round" stroke-miterlimit="4" stroke="#4F92FF" stroke-width="2"><g><path d="M 32.5 13.125L 35 13.125C 35.690353 13.125 36.25 13.684644 36.25 14.375L 36.25 38.125C 36.25 38.815353 35.690353 39.375 35 39.375L 15 39.375C 14.309644 39.375 13.75 38.815353 13.75 38.125L 13.75 14.375C 13.75 13.684644 14.309644 13.125 15 13.125L 17.5 13.125M 27.5 13.125C 27.5 11.744288 26.380713 10.625 25 10.625C 23.619287 10.625 22.5 11.744288 22.5 13.125L 20 13.125L 20 16.875L 30 16.875L 30 13.125ZM 20 15.625L 16.875 15.625C 16.529821 15.625 16.25 15.904821 16.25 16.25L 16.25 36.25C 16.25 36.595177 16.529821 36.875 16.875 36.875L 28.75 36.875L 28.75 32.5C 28.75 32.154823 29.029823 31.875 29.375 31.875L 33.75 31.875L 33.75 16.25C 33.75 15.904821 33.470177 15.625 33.125 15.625L 30 15.625M 33.75 31.875L 28.75 36.875M 20 23.75L 20.987499 22.762501C 21.238863 22.505548 21.588676 22.369244 21.94762 22.388386C 22.306562 22.40753 22.639893 22.580271 22.862499 22.862499C 23.097208 23.09914 23.416702 23.232248 23.75 23.232248C 24.083298 23.232248 24.402792 23.09914 24.637501 22.862499C 24.874283 22.5574 25.238798 22.378883 25.625 22.378883C 26.011202 22.378883 26.375717 22.5574 26.612499 22.862499C 26.847208 23.09914 27.166702 23.232248 27.5 23.232248C 27.833298 23.232248 28.152792 23.09914 28.387501 22.862499L 29.375 21.875M 20 28.75L 20.987499 27.762501C 21.238863 27.505548 21.588676 27.369244 21.94762 27.388386C 22.306562 27.40753 22.639893 27.580271 22.862499 27.862499C 23.097208 28.09914 23.416702 28.232248 23.75 28.232248C 24.083298 28.232248 24.402792 28.09914 24.637501 27.862499C 24.874283 27.5574 25.238798 27.378883 25.625 27.378883C 26.011202 27.378883 26.375717 27.5574 26.612499 27.862499C 26.847208 28.09914 27.166702 28.232248 27.5 28.232248C 27.833298 28.232248 28.152792 28.09914 28.387501 27.862499L 29.375 26.875"></path></g></g></g><g id="g-root-assi_ddlfto1ghi9e0-stroke" data-item-order="0" data-item-id="assi_ddlfto1ghi9e0" data-item-class="Icon Stroke" data-item-index="none" data-renderer-id="0" transform="translate(483, 81)"><g id="assi_ddlfto1ghi9e0-stroke" fill="none" stroke-linecap="round" stroke-linejoin="round" stroke-miterlimit="4" stroke="#F99539" stroke-width="2"><g><path d="M 21.645 32.122501C 21.644617 33.975685 23.146814 35.478195 25 35.478195C 26.853186 35.478195 28.355383 33.975685 28.355 32.122501C 28.355383 30.269314 26.853186 28.766806 25 28.766806C 23.146814 28.766806 21.644617 30.269314 21.645 32.122501M 29.793751 39.3125C 28.849154 37.542606 27.006189 36.437187 25 36.437187C 22.993813 36.437187 21.150848 37.542606 20.206249 39.3125M 31.382502 32.122501C 31.382118 33.975685 32.884315 35.478195 34.737499 35.478195C 36.590687 35.478195 38.092884 33.975685 38.092499 32.122501C 38.092884 30.269314 36.590687 28.766806 34.737499 28.766806C 32.884315 28.766806 31.382118 30.269314 31.3825 32.122501M 39.375 38.83625C 38.251396 37.249954 36.395161 36.347744 34.45364 36.444248C 32.512119 36.540756 30.754507 37.622601 29.793751 39.3125M 11.9075 32.122501C 11.907117 33.975685 13.409314 35.478195 15.2625 35.478195C 17.115686 35.478195 18.617882 33.975685 18.6175 32.122501C 18.617882 30.269314 17.115686 28.766806 15.2625 28.766806C 13.409314 28.766806 11.907117 30.269314 11.9075 32.122501M 10.625 38.83625C 11.748605 37.249954 13.604838 36.347744 15.546359 36.444248C 17.487881 36.540756 19.245493 37.622601 20.206249 39.3125M 38.59 19.203751L 32.09 25.703751L 28.893749 26.342501L 29.532501 23.147499L 36.032501 16.647499C 36.736378 15.943827 37.877373 15.943827 38.581249 16.647499L 38.588749 16.655001C 38.927452 16.992527 39.117931 17.450949 39.118168 17.929115C 39.118401 18.407282 38.928368 18.865891 38.59 19.203751ZM 33.383751 13.4975L 30.171249 10.6875L 14.8325 10.6875L 14.8325 25.067499M 18.6675 17.397501L 19.945 18.67625L 22.501251 16.119999M 18.6675 23.78875L 19.945 25.067499L 22.501251 22.51M 25.6975 18.036249L 27.615 18.036249M 30.171249 22.51L 32.727501 25.067499M 12.6675 30C 14.235119 31.559528 16.416611 32.338631 18.6175 32.125M 22.404999 30C 23.972713 31.559374 26.154131 32.338451 28.355 32.125M 32.142502 30C 33.710602 31.55958 35.892483 32.338661 38.09375 32.125"></path></g></g></g><g id="g-root-tx_taskassi_qofh3w1ghiayv-stroke" data-item-order="0" data-item-id="tx_taskassi_qofh3w1ghiayv" data-item-class="Label Stroke" data-item-index="none" data-renderer-id="0" transform="translate(519, 84)"></g><g id="g-root-tx_descript_1hclg0s1ghi9z7-stroke" data-item-order="0" data-item-id="tx_descript_1hclg0s1ghi9z7" data-item-class="Label Stroke" data-item-index="none" data-renderer-id="0" transform="translate(39, 105)"></g><g id="g-root-1_1hhl5jw1ghe1ov-stroke" data-item-order="0" data-item-id="1_1hhl5jw1ghe1ov" data-item-class="Icon Stroke" data-item-index="none" data-renderer-id="0" transform="translate(309, 105)"><g id="1_1hhl5jw1ghe1ov-stroke" fill="none" stroke-linecap="round" stroke-linejoin="round" stroke-miterlimit="4" stroke="#A3A3A3" stroke-width="2"><g><path d="M 23.392 18.144001L 12.492001 18.144001C 11.896 18.144001 11.5 17.748001 11.5 17.152L 11.5 13.188C 11.5 12.594 11.896 12.198 12.492001 12.198L 23.392 12.198C 23.987999 12.198 24.383999 12.594 24.383999 13.188L 24.383999 17.152C 24.383999 17.548 23.987999 18.144001 23.392 18.144001ZM 41.417999 24.09L 25.560001 24.09C 24.966 24.09 24.57 23.694 24.57 23.098L 24.57 19.133999C 24.57 18.540001 24.966 18.144001 25.560001 18.144001L 41.417999 18.144001C 42.012001 18.144001 42.408001 18.540001 42.408001 19.133999L 42.408001 23.1C 42.408001 23.498001 42.012001 24.091999 41.417999 24.091999ZM 55.509998 30.035999L 43.616001 30.035999C 43.021999 30.035999 42.625999 29.639999 42.625999 29.046L 42.625999 25.08C 42.625999 24.486 43.021999 24.09 43.616001 24.09L 55.509998 24.09C 56.104 24.09 56.5 24.486 56.5 25.08L 56.5 29.046C 56.5 29.441999 56.104 30.035999 55.509998 30.035999ZM 36.276001 39.945999L 16.455999 39.945999C 15.860001 39.945999 15.464001 39.549999 15.464001 38.956001L 15.464001 34.992001C 15.464001 34.396 15.860001 34 16.455999 34L 36.276001 34C 36.870003 34 37.267998 34.396 37.267998 34.989998L 37.267998 38.956001C 37.267998 39.351997 36.870003 39.945999 36.276001 39.945999ZM 55.292 45.891998L 38.444 45.891998C 37.849998 45.891998 37.454002 45.495998 37.454002 44.902L 37.454002 40.938C 37.454002 40.341999 37.849998 39.945999 38.444 39.945999L 55.292 39.945999C 55.886002 39.945999 56.284 40.341999 56.284 40.938L 56.284 44.902C 56.284 45.298 55.886002 45.891998 55.292 45.891998ZM 26.365999 55.801998L 16.455999 55.801998C 15.860001 55.801998 15.464001 55.405998 15.464001 54.812L 15.464001 50.848C 15.464001 50.251999 15.860001 49.855999 16.455999 49.855999L 26.365999 49.855999C 26.959999 49.855999 27.356001 50.251999 27.356001 50.848L 27.356001 54.812C 27.356001 55.208 26.959999 55.801998 26.365999 55.801998Z"></path></g></g></g><g id="g-root-cu_1q6zl981gh48ar-stroke" data-item-order="0" data-item-id="cu_1q6zl981gh48ar" data-item-class="Curve Stroke ColorFillBlack ColorStrokeBlack" data-item-index="none" data-renderer-id="0" transform="translate(423, 96)"><g id="cu_1q6zl981gh48ar-stroke" fill="none" stroke-linecap="round" stroke-linejoin="round" stroke-miterlimit="4" stroke="#666666" stroke-width="2" stroke-dasharray="5.0, 7.0"><g><path d="M 10 45L 13 45L 13.1 45C 17.577866 44.972592 22.360217 43.214375 26.699999 40C 29.320119 38.118536 31.98143 33.561497 33.999999 27.499999C 36.018569 21.438502 38.67988 16.881462 41.299999 15C 45.63978 11.785625 50.422131 10.027407 54.899998 9.999999L 55 10L 58 10"></path></g></g></g><g id="g-root-cu_qp21cs1gh49vs-stroke" data-item-order="0" data-item-id="cu_qp21cs1gh49vs" data-item-class="Curve Stroke ColorFillBlack ColorStrokeBlack" data-item-index="none" data-renderer-id="0" transform="translate(495, 123)"><g id="cu_qp21cs1gh49vs-stroke" fill="none" stroke-linecap="round" stroke-linejoin="round" stroke-miterlimit="4" stroke="#666666" stroke-width="2" stroke-dasharray="5.0, 7.0"><g><path d="M 10 10L 10 22L 10 34L 19 34L 28 34"></path></g></g></g><g id="g-root-cu_m9v0bg1gh47ib-stroke" data-item-order="0" data-item-id="cu_m9v0bg1gh47ib" data-item-class="Curve Stroke ColorFillBlack ColorStrokeBlack" data-item-index="none" data-renderer-id="0" transform="translate(495, 123)"><g id="cu_m9v0bg1gh47ib-stroke" fill="none" stroke-linecap="round" stroke-linejoin="round" stroke-miterlimit="4" stroke="#666666" stroke-width="2" stroke-dasharray="5.0, 7.0"><g><path d="M 10 10L 10 17.5L 10 58C 10.000002 64.627417 15.372585 70 22.000002 69.999999L 22.1 70L 28 70"></path></g></g></g><g id="g-root-tx_status_18gyfrw1ghiarw-stroke" data-item-order="0" data-item-id="tx_status_18gyfrw1ghiarw" data-item-class="Label Stroke" data-item-index="none" data-renderer-id="0" transform="translate(75, 141)"></g><g id="g-root-tx_assignin_18itv181ghi9sa-stroke" data-item-order="0" data-item-id="tx_assignin_18itv181ghi9sa" data-item-class="Label Stroke" data-item-index="none" data-renderer-id="0" transform="translate(519, 135)"></g><g id="g-root-tx_taskmana_1usf6u41ghe39q-stroke" data-item-order="0" data-item-id="tx_taskmana_1usf6u41ghe39q" data-item-class="Label Stroke" data-item-index="none" data-renderer-id="0" transform="translate(267, 159)"></g><g id="g-root-tx_duedates_v64eho1ghi971-stroke" data-item-order="0" data-item-id="tx_duedates_v64eho1ghi971" data-item-class="Label Stroke" data-item-index="none" data-renderer-id="0" transform="translate(51, 177)"></g><g id="g-root-tx_notifica_v7dcnw1ghibd7-stroke" data-item-order="0" data-item-id="tx_notifica_v7dcnw1ghibd7" data-item-class="Label Stroke" data-item-index="none" data-renderer-id="0" transform="translate(519, 171)"></g><g id="g-root-tx_priority_deudzw1ghibk6-stroke" data-item-order="0" data-item-id="tx_priority_deudzw1ghibk6" data-item-class="Label Stroke" data-item-index="none" data-renderer-id="0" transform="translate(15, 213)"></g><g id="g-root-cu_1umt3do1gh47ig-stroke" data-item-order="0" data-item-id="cu_1umt3do1gh47ig" data-item-class="Curve Stroke ColorFillBlack ColorStrokeBlack" data-item-index="none" data-renderer-id="0" transform="translate(333, 231)"><g id="cu_1umt3do1gh47ig-stroke" fill="none" stroke-linecap="round" stroke-linejoin="round" stroke-miterlimit="4" stroke="#666666" stroke-width="2" stroke-dasharray="5.0, 7.0"><g><path d="M 10 10L 10 61L 10 112"></path></g></g></g><g id="g-root-tx_budgets_4jtuu41ghi973-stroke" data-item-order="0" data-item-id="tx_budgets_4jtuu41ghi973" data-item-class="Label Stroke" data-item-index="none" data-renderer-id="0" transform="translate(63, 249)"></g><g id="g-root-tx_taskcrea_qn6m3g1gh4a2y-stroke" data-item-order="0" data-item-id="tx_taskcrea_qn6m3g1gh4a2y" data-item-class="Label Stroke" data-item-index="none" data-renderer-id="0" transform="translate(15, 18)"></g><g id="g-root-cu_18gc1uk1gh47id-stroke" data-item-order="0" data-item-id="cu_18gc1uk1gh47id" data-item-class="Curve Stroke ColorFillBlack ColorStrokeBlack" data-item-index="none" data-renderer-id="0" transform="translate(153, 57)"><g id="cu_18gc1uk1gh47id-stroke" fill="none" stroke-linecap="round" stroke-linejoin="round" stroke-miterlimit="4" stroke="#666666" stroke-width="2" stroke-dasharray="5.0, 7.0"><g><path d="M 28 10L 28 76L 28 142L 19 142L 10 142"></path></g></g></g></g></g></svg>