<?xml version="1.0" encoding="utf-8" standalone="yes"?>
<!DOCTYPE svg PUBLIC "-//W3C//DTD SVG 1.1//EN" "http://www.w3.org/Graphics/SVG/1.1/DTD/svg11.dtd">
<svg width="649" height="384" viewBox="0 0 649 384" style="fill:none;stroke:none;fill-rule:evenodd;clip-rule:evenodd;stroke-linecap:round;stroke-linejoin:round;stroke-miterlimit:1.5;" version="1.1" xmlns="http://www.w3.org/2000/svg" xmlns:xlink="http://www.w3.org/1999/xlink"><style id="fontImports">@import url("https://fonts.googleapis.com/css2?family=Roboto:wght@400;700&amp;display=block");</style><rect id="" x="0" y="0" width="649" height="384" style="fill: #2c2c2c;"></rect><g id="items" style="isolation: isolate"><g id="blend" style="mix-blend-mode:screen"><g id="g-root--1.line_sy_597ql1growea-fill" data-item-order="-3739" data-item-id="-1.line_sy_597ql1growea" data-item-class="Part Stroke ColorStrokeGray" data-item-index="-1" data-renderer-id="0" transform="translate(558, 241.99609375)"></g><g id="g-root--1.vector_sy_1qaq9gt1growzv-fill" data-item-order="-3737" data-item-id="-1.vector_sy_1qaq9gt1growzv" data-item-class="Part Stroke ColorStrokeGray" data-item-index="-1" data-renderer-id="0" transform="translate(3, 241.99609375)"></g><g id="g-root-6.cu-smallCircle_sy_v8m7ot1groxs9-fill" data-item-order="-3735" data-item-id="6.cu-smallCircle_sy_v8m7ot1groxs9" data-item-class="Part Indexed Stroke ColorStrokeGray" data-item-index="6" data-renderer-id="0" transform="translate(552, 239)"></g><g id="g-root-5.cu-smallCircle_sy_14497xp1growzk-fill" data-item-order="-3733" data-item-id="5.cu-smallCircle_sy_14497xp1growzk" data-item-class="Part Indexed Stroke ColorStrokeGray" data-item-index="5" data-renderer-id="0" transform="translate(456, 239)"></g><g id="g-root-4.cu-smallCircle_sy_18k2q251grow7b-fill" data-item-order="-3731" data-item-id="4.cu-smallCircle_sy_18k2q251grow7b" data-item-class="Part Indexed Stroke ColorStrokeGray" data-item-index="4" data-renderer-id="0" transform="translate(360, 239)"></g><g id="g-root-3.cu-smallCircle_sy_18k2q251grow7a-fill" data-item-order="-3729" data-item-id="3.cu-smallCircle_sy_18k2q251grow7a" data-item-class="Part Indexed Stroke ColorStrokeGray" data-item-index="3" data-renderer-id="0" transform="translate(264, 239)"></g><g id="g-root-2.cu-smallCircle_sy_1czw86l1grovf1-fill" data-item-order="-3727" data-item-id="2.cu-smallCircle_sy_1czw86l1grovf1" data-item-class="Part Indexed Stroke ColorStrokeGray" data-item-index="2" data-renderer-id="0" transform="translate(168, 239)"></g><g id="g-root-1.cu-smallCircle_sy_1qaq9gt1growzw-fill" data-item-order="-3725" data-item-id="1.cu-smallCircle_sy_1qaq9gt1growzw" data-item-class="Part Indexed Indexed_1 Stroke ColorStrokeGray" data-item-index="1" data-renderer-id="0" transform="translate(72, 239)"></g><g id="g-root-tx_teammemb_vahmy51growso-fill" data-item-order="0" data-item-id="tx_teammemb_vahmy51growso" data-item-class="Label Stroke Title ColorStrokeGray" data-item-index="none" data-renderer-id="0" transform="translate(165, 2)"><g id="tx_teammemb_vahmy51growso-fill" stroke="none" fill="#A3A3A3"><g><text style="font: 20px Roboto, sans-serif; white-space: pre;"><tspan x="13.23" y="34" dominant-baseline="ideographic">Team Member Invitation Process</tspan></text></g></g></g><g id="g-root-tx_enterema_18lbo8d1groydj-fill" data-item-order="0" data-item-id="tx_enterema_18lbo8d1groydj" data-item-class="Label Stroke Indexed Indexed_1 ColorStrokeGray" data-item-index="1" data-renderer-id="0" transform="translate(15, 122)"><g id="tx_enterema_18lbo8d1groydj-fill" stroke="none" fill="#A3A3A3"><g><text style="font: 20px Roboto, sans-serif; white-space: pre;"><tspan x="17.16" y="34" dominant-baseline="ideographic">Enter Email </tspan><tspan x="20.36" y="58" dominant-baseline="ideographic">Addresses</tspan></text></g></g></g><g id="g-root-tx_sendinvi_1qcloq51grow0d-fill" data-item-order="0" data-item-id="tx_sendinvi_1qcloq51grow0d" data-item-class="Label Stroke Indexed ColorStrokeGray" data-item-index="3" data-renderer-id="0" transform="translate(213, 122)"><g id="tx_sendinvi_1qcloq51grow0d-fill" stroke="none" fill="#A3A3A3"><g><text style="font: 20px Roboto, sans-serif; white-space: pre;"><tspan x="41.62" y="34" dominant-baseline="ideographic">Send </tspan><tspan x="17.71" y="58" dominant-baseline="ideographic">Invitations</tspan></text></g></g></g><g id="g-root-tx_acceptin_hxs6el1grow7f-fill" data-item-order="0" data-item-id="tx_acceptin_hxs6el1grow7f" data-item-class="Label Stroke Indexed ColorStrokeGray" data-item-index="5" data-renderer-id="0" transform="translate(411, 122)"><g id="tx_acceptin_hxs6el1grow7f-fill" stroke="none" fill="#A3A3A3"><g><text style="font: 20px Roboto, sans-serif; white-space: pre;"><tspan x="26.84" y="34" dominant-baseline="ideographic">Accept </tspan><tspan x="16.87" y="58" dominant-baseline="ideographic">Invitation</tspan></text></g></g></g><g id="g-root-emai_1igdp1grgirv-fill" data-item-order="0" data-item-id="emai_1igdp1grgirv" data-item-class="Icon Stroke Indexed Indexed_1" data-item-index="1" data-renderer-id="0" transform="translate(51, 182)"></g><g id="g-root-send_qnt0191grgirt-fill" data-item-order="0" data-item-id="send_qnt0191grgirt" data-item-class="Icon Stroke Indexed" data-item-index="3" data-renderer-id="0" transform="translate(243, 182)"></g><g id="g-root-play_1lpx1t91grghzj-fill" data-item-order="0" data-item-id="play_1lpx1t91grghzj" data-item-class="Icon Stroke Indexed" data-item-index="5" data-renderer-id="0" transform="translate(435, 182)"></g><g id="g-root-2_dcyyr11grgh6y-fill" data-item-order="0" data-item-id="2_dcyyr11grgh6y" data-item-class="Icon Stroke Indexed" data-item-index="2" data-renderer-id="0" transform="translate(147, 254)"></g><g id="g-root-noti_13z9iel1grgh6w-fill" data-item-order="0" data-item-id="noti_13z9iel1grgh6w" data-item-class="Icon Stroke Indexed" data-item-index="4" data-renderer-id="0" transform="translate(339, 254)"></g><g id="g-root-male_959mr11grf4ee-fill" data-item-order="0" data-item-id="male_959mr11grf4ee" data-item-class="Icon Stroke Indexed" data-item-index="6" data-renderer-id="0" transform="translate(531, 254)"></g><g id="g-root-tx_specifyr_1d156ct1groxla-fill" data-item-order="0" data-item-id="tx_specifyr_1d156ct1groxla" data-item-class="Label Stroke Indexed ColorStrokeGray" data-item-index="2" data-renderer-id="0" transform="translate(105, 314)"><g id="tx_specifyr_1d156ct1groxla-fill" stroke="none" fill="#A3A3A3"><g><text style="font: 20px Roboto, sans-serif; white-space: pre;"><tspan x="16.08" y="34" dominant-baseline="ideographic">Specify Roles</tspan></text></g></g></g><g id="g-root-tx_receivei_4mbo191groxsc-fill" data-item-order="0" data-item-id="tx_receivei_4mbo191groxsc" data-item-class="Label Stroke Indexed ColorStrokeGray" data-item-index="4" data-renderer-id="0" transform="translate(315, 314)"><g id="tx_receivei_4mbo191groxsc-fill" stroke="none" fill="#A3A3A3"><g><text style="font: 20px Roboto, sans-serif; white-space: pre;"><tspan x="23.51" y="34" dominant-baseline="ideographic">Receive </tspan><tspan x="16.87" y="58" dominant-baseline="ideographic">Invitation</tspan></text></g></g></g><g id="g-root-tx_setuppro_v8m7ot1groxsa-fill" data-item-order="0" data-item-id="tx_setuppro_v8m7ot1groxsa" data-item-class="Label Stroke Indexed ColorStrokeGray" data-item-index="6" data-renderer-id="0" transform="translate(495, 314)"><g id="tx_setuppro_v8m7ot1groxsa-fill" stroke="none" fill="#A3A3A3"><g><text style="font: 20px Roboto, sans-serif; white-space: pre;"><tspan x="16.88" y="34" dominant-baseline="ideographic">Join Project</tspan></text></g></g></g><g id="g-root--1.line_sy_597ql1growea-stroke" data-item-order="-3739" data-item-id="-1.line_sy_597ql1growea" data-item-class="Part Stroke ColorStrokeGray" data-item-index="-1" data-renderer-id="0" transform="translate(558, 241.99609375)"><g id="-1.line_sy_597ql1growea-stroke" fill="none" stroke-linecap="round" stroke-linejoin="round" stroke-miterlimit="4" stroke="#A3A3A3" stroke-width="2"><g><path d="M 77 10.003906L 10 10.003906"></path><path d="M 71 16.503906L 77.5 10.003906L 71 3.503906" stroke-dasharray="none"></path></g></g></g><g id="g-root--1.vector_sy_1qaq9gt1growzv-stroke" data-item-order="-3737" data-item-id="-1.vector_sy_1qaq9gt1growzv" data-item-class="Part Stroke ColorStrokeGray" data-item-index="-1" data-renderer-id="0" transform="translate(3, 241.99609375)"><g id="-1.vector_sy_1qaq9gt1growzv-stroke" fill="none" stroke-linecap="round" stroke-linejoin="round" stroke-miterlimit="4" stroke="#A3A3A3" stroke-width="2"><g><path d="M 559 10L 469 10M 463 10L 373 10M 367 10L 277 10M 271 10L 181 10M 174.9976 10L 84.9976 10M 78.9976 10L 10 10"></path></g></g></g><g id="g-root-6.cu-smallCircle_sy_v8m7ot1groxs9-stroke" data-item-order="-3735" data-item-id="6.cu-smallCircle_sy_v8m7ot1groxs9" data-item-class="Part Indexed Stroke ColorStrokeGray" data-item-index="6" data-renderer-id="0" transform="translate(552, 239)"><g id="6.cu-smallCircle_sy_v8m7ot1groxs9-stroke" fill="none" stroke-linecap="round" stroke-linejoin="round" stroke-miterlimit="4" stroke="#A3A3A3" stroke-width="2"><g><path d="M 16 13C 16 14.6569 14.6569 16 13 16C 11.3431 16 10 14.6569 10 13C 10 11.3431 11.3431 10 13 10C 14.6569 10 16 11.3431 16 13Z"></path></g></g></g><g id="g-root-5.cu-smallCircle_sy_14497xp1growzk-stroke" data-item-order="-3733" data-item-id="5.cu-smallCircle_sy_14497xp1growzk" data-item-class="Part Indexed Stroke ColorStrokeGray" data-item-index="5" data-renderer-id="0" transform="translate(456, 239)"><g id="5.cu-smallCircle_sy_14497xp1growzk-stroke" fill="none" stroke-linecap="round" stroke-linejoin="round" stroke-miterlimit="4" stroke="#A3A3A3" stroke-width="2"><g><path d="M 16 13C 16 14.6569 14.6569 16 13 16C 11.3431 16 10 14.6569 10 13C 10 11.3431 11.3431 10 13 10C 14.6569 10 16 11.3431 16 13Z"></path></g></g></g><g id="g-root-4.cu-smallCircle_sy_18k2q251grow7b-stroke" data-item-order="-3731" data-item-id="4.cu-smallCircle_sy_18k2q251grow7b" data-item-class="Part Indexed Stroke ColorStrokeGray" data-item-index="4" data-renderer-id="0" transform="translate(360, 239)"><g id="4.cu-smallCircle_sy_18k2q251grow7b-stroke" fill="none" stroke-linecap="round" stroke-linejoin="round" stroke-miterlimit="4" stroke="#A3A3A3" stroke-width="2"><g><path d="M 16 13C 16 14.6569 14.6569 16 13 16C 11.3431 16 10 14.6569 10 13C 10 11.3431 11.3431 10 13 10C 14.6569 10 16 11.3431 16 13Z"></path></g></g></g><g id="g-root-3.cu-smallCircle_sy_18k2q251grow7a-stroke" data-item-order="-3729" data-item-id="3.cu-smallCircle_sy_18k2q251grow7a" data-item-class="Part Indexed Stroke ColorStrokeGray" data-item-index="3" data-renderer-id="0" transform="translate(264, 239)"><g id="3.cu-smallCircle_sy_18k2q251grow7a-stroke" fill="none" stroke-linecap="round" stroke-linejoin="round" stroke-miterlimit="4" stroke="#A3A3A3" stroke-width="2"><g><path d="M 16 13C 16 14.6569 14.6569 16 13 16C 11.3431 16 10 14.6569 10 13C 10 11.3431 11.3431 10 13 10C 14.6569 10 16 11.3431 16 13Z"></path></g></g></g><g id="g-root-2.cu-smallCircle_sy_1czw86l1grovf1-stroke" data-item-order="-3727" data-item-id="2.cu-smallCircle_sy_1czw86l1grovf1" data-item-class="Part Indexed Stroke ColorStrokeGray" data-item-index="2" data-renderer-id="0" transform="translate(168, 239)"><g id="2.cu-smallCircle_sy_1czw86l1grovf1-stroke" fill="none" stroke-linecap="round" stroke-linejoin="round" stroke-miterlimit="4" stroke="#A3A3A3" stroke-width="2"><g><path d="M 16 13C 16 14.6569 14.6569 16 13 16C 11.3431 16 10 14.6569 10 13C 10 11.3431 11.3431 10 13 10C 14.6569 10 16 11.3431 16 13Z"></path></g></g></g><g id="g-root-1.cu-smallCircle_sy_1qaq9gt1growzw-stroke" data-item-order="-3725" data-item-id="1.cu-smallCircle_sy_1qaq9gt1growzw" data-item-class="Part Indexed Indexed_1 Stroke ColorStrokeGray" data-item-index="1" data-renderer-id="0" transform="translate(72, 239)"><g id="1.cu-smallCircle_sy_1qaq9gt1growzw-stroke" fill="none" stroke-linecap="round" stroke-linejoin="round" stroke-miterlimit="4" stroke="#A3A3A3" stroke-width="2"><g><path d="M 16 13C 16 14.6569 14.6569 16 13 16C 11.3431 16 10 14.6569 10 13C 10 11.3431 11.3431 10 13 10C 14.6569 10 16 11.3431 16 13Z"></path></g></g></g><g id="g-root-tx_teammemb_vahmy51growso-stroke" data-item-order="0" data-item-id="tx_teammemb_vahmy51growso" data-item-class="Label Stroke Title ColorStrokeGray" data-item-index="none" data-renderer-id="0" transform="translate(165, 2)"></g><g id="g-root-tx_enterema_18lbo8d1groydj-stroke" data-item-order="0" data-item-id="tx_enterema_18lbo8d1groydj" data-item-class="Label Stroke Indexed Indexed_1 ColorStrokeGray" data-item-index="1" data-renderer-id="0" transform="translate(15, 122)"></g><g id="g-root-tx_sendinvi_1qcloq51grow0d-stroke" data-item-order="0" data-item-id="tx_sendinvi_1qcloq51grow0d" data-item-class="Label Stroke Indexed ColorStrokeGray" data-item-index="3" data-renderer-id="0" transform="translate(213, 122)"></g><g id="g-root-tx_acceptin_hxs6el1grow7f-stroke" data-item-order="0" data-item-id="tx_acceptin_hxs6el1grow7f" data-item-class="Label Stroke Indexed ColorStrokeGray" data-item-index="5" data-renderer-id="0" transform="translate(411, 122)"></g><g id="g-root-emai_1igdp1grgirv-stroke" data-item-order="0" data-item-id="emai_1igdp1grgirv" data-item-class="Icon Stroke Indexed Indexed_1" data-item-index="1" data-renderer-id="0" transform="translate(51, 182)"><g id="emai_1igdp1grgirv-stroke" fill="none" stroke-linecap="round" stroke-linejoin="round" stroke-miterlimit="4" stroke="#4F92FF" stroke-width="2"><g><path d="M 27.142857 43.428574L 15.142858 43.428574C 13.24931 43.428574 11.714286 41.893551 11.714286 40L 11.714286 19.428572C 11.714286 17.535025 13.24931 16 15.142858 16L 52.857143 16C 54.750694 16 56.285713 17.535025 56.285713 19.428572L 56.285713 26.285715M 22 26.285715L 22 33.142857M 39.142857 34.857143L 52.857143 34.857143C 52.857143 34.857143 56.285713 34.857143 56.285713 38.285713L 56.285713 48.57143C 56.285713 48.57143 56.285713 52 52.857143 52L 39.142857 52C 39.142857 52 35.714287 52 35.714287 48.57143L 35.714287 38.285713C 35.714287 38.285713 35.714287 34.857143 39.142857 34.857143M 35.714287 40L 46 45.142857L 56.285713 40"></path></g></g></g><g id="g-root-send_qnt0191grgirt-stroke" data-item-order="0" data-item-id="send_qnt0191grgirt" data-item-class="Icon Stroke Indexed" data-item-index="3" data-renderer-id="0" transform="translate(243, 182)"><g id="send_qnt0191grgirt-stroke" fill="none" stroke-linecap="round" stroke-linejoin="round" stroke-miterlimit="4" stroke="#1AC6FF" stroke-width="2"><g><path d="M 39 26.908001L 11 26.908001L 11 40.908001L 39 40.908001L 39 50.908001L 57 33.908001L 39 16.908001L 39 26.908001Z"></path></g></g></g><g id="g-root-play_1lpx1t91grghzj-stroke" data-item-order="0" data-item-id="play_1lpx1t91grghzj" data-item-class="Icon Stroke Indexed" data-item-index="5" data-renderer-id="0" transform="translate(435, 182)"><g id="play_1lpx1t91grghzj-stroke" fill="none" stroke-linecap="round" stroke-linejoin="round" stroke-miterlimit="4" stroke="#FFE60A" stroke-width="2"><g><path d="M 49 27.5L 57 33L 57 54C 57 55.656857 55.656857 57 54 57L 14 57C 12.343145 57 11 55.656857 11 54L 11 33L 19 27.5M 17 51L 27 43L 41 43L 51 51M 57 33L 45 41M 11 33L 23 41M 49 38.334L 49 13C 49 11.895431 48.104568 11 47 11L 21 11C 19.895432 11 19 11.895431 19 13L 19 38.334M 27 19L 41 19C 41 19 43 19 43 21L 43 33C 43 33 43 35 41 35L 27 35C 27 35 25 35 25 33L 25 21C 25 21 25 19 27 19M 31 24.574001C 30.999081 24.367115 31.109949 24.175854 31.289934 24.073833C 31.469921 23.971815 31.690969 23.974937 31.868002 24.082001L 37.722 26.507999C 37.894703 26.611782 38.000343 26.798515 38.000343 27C 38.000343 27.201487 37.894703 27.38822 37.722 27.492001L 31.868 29.917999C 31.689619 30.022928 31.46838 30.022928 31.289999 29.917999C 31.111271 29.815765 31.000708 29.6259 31 29.42Z"></path></g></g></g><g id="g-root-2_dcyyr11grgh6y-stroke" data-item-order="0" data-item-id="2_dcyyr11grgh6y" data-item-class="Icon Stroke Indexed" data-item-index="2" data-renderer-id="0" transform="translate(147, 254)"><g id="2_dcyyr11grgh6y-stroke" fill="none" stroke-linecap="round" stroke-linejoin="round" stroke-miterlimit="4" stroke="#44E095" stroke-width="2"><g><path d="M 13.044001 22L 54.955997 22C 54.955997 22 56.955997 22 56.955997 24L 56.955997 44C 56.955997 44 56.955997 46 54.955997 46L 13.044001 46C 13.044001 46 11.044 46 11.044 44L 11.044 24C 11.044 24 11.044 22 13.044001 22M 38.956001 22.5L 38.956001 46M 45.043999 32L 48.043999 36L 51.043999 32M 18.028 39.220001C 18.028 39.49614 18.251858 39.720001 18.528 39.720001C 18.804142 39.720001 19.028 39.49614 19.028 39.220001C 19.028 38.943855 18.804142 38.720001 18.528 38.720001C 18.251858 38.720001 18.028 38.943855 18.028 39.220001M 24.528 39.220001C 24.528 39.49614 24.751858 39.720001 25.028 39.720001C 25.304142 39.720001 25.528 39.49614 25.528 39.220001C 25.528 38.943855 25.304142 38.720001 25.028 38.720001C 24.751858 38.720001 24.528 38.943855 24.528 39.220001M 31.028 39.220001C 31.028 39.49614 31.251858 39.720001 31.528 39.720001C 31.804142 39.720001 32.028 39.49614 32.028 39.220001C 32.028 38.943855 31.804142 38.720001 31.528 38.720001C 31.251858 38.720001 31.028 38.943855 31.028 39.220001"></path></g></g></g><g id="g-root-noti_13z9iel1grgh6w-stroke" data-item-order="0" data-item-id="noti_13z9iel1grgh6w" data-item-class="Icon Stroke Indexed" data-item-index="4" data-renderer-id="0" transform="translate(339, 254)"><g id="noti_13z9iel1grgh6w-stroke" fill="none" stroke-linecap="round" stroke-linejoin="round" stroke-miterlimit="4" stroke="#A8DD38" stroke-width="2"><g><path d="M 39.142857 23.714287C 39.142857 28.448156 42.980419 32.285713 47.714287 32.285713C 52.448158 32.285713 56.285713 28.448156 56.285713 23.714287C 56.285713 18.980417 52.448158 15.142858 47.714287 15.142858C 42.980419 15.142858 39.142857 18.980417 39.142857 23.714287M 52.857143 40.857143L 52.857143 52.857143C 52.857143 54.750694 51.322121 56.285713 49.428574 56.285713L 15.142858 56.285713C 13.24931 56.285713 11.714286 54.750694 11.714286 52.857143L 11.714286 28.857143C 11.714286 26.963596 13.24931 25.428572 15.142858 25.428572L 28.857143 25.428572M 11.714286 29.748573L 32.285713 44.285713L 39.382858 39.279999"></path></g></g></g><g id="g-root-male_959mr11grf4ee-stroke" data-item-order="0" data-item-id="male_959mr11grf4ee" data-item-class="Icon Stroke Indexed" data-item-index="6" data-renderer-id="0" transform="translate(531, 254)"><g id="male_959mr11grf4ee-stroke" fill="none" stroke-linecap="round" stroke-linejoin="round" stroke-miterlimit="4" stroke="#F99539" stroke-width="2"><g><path d="M 32 47L 17 47C 13.686292 47 11 44.313709 11 41L 11 17C 11 13.686292 13.686292 11 17 11L 41 11C 44.313709 11 47 13.686292 47 17L 47 27M 57 44.734001L 47.026001 33L 37.054001 44.734001L 42.493999 44.734001L 42.493999 57L 51.560001 57L 51.560001 44.734001L 57 44.734001ZM 37.056 35.073997C 34.495476 31.592314 29.987991 30.149529 25.881641 31.497238C 21.775293 32.844948 18.999393 36.678146 19 41L 33.049999 41M 23.83 18.954C 25.707212 20.900848 28.295534 22.000435 31 22C 32.356857 22.000391 33.699539 21.724096 34.945999 21.188M 23 22C 23 25.313709 25.686291 28 29 28C 32.313709 28 35 25.313709 35 22C 35 18.686291 32.313709 16 29 16C 25.686291 16 23 18.686291 23 22"></path></g></g></g><g id="g-root-tx_specifyr_1d156ct1groxla-stroke" data-item-order="0" data-item-id="tx_specifyr_1d156ct1groxla" data-item-class="Label Stroke Indexed ColorStrokeGray" data-item-index="2" data-renderer-id="0" transform="translate(105, 314)"></g><g id="g-root-tx_receivei_4mbo191groxsc-stroke" data-item-order="0" data-item-id="tx_receivei_4mbo191groxsc" data-item-class="Label Stroke Indexed ColorStrokeGray" data-item-index="4" data-renderer-id="0" transform="translate(315, 314)"></g><g id="g-root-tx_setuppro_v8m7ot1groxsa-stroke" data-item-order="0" data-item-id="tx_setuppro_v8m7ot1groxsa" data-item-class="Label Stroke Indexed ColorStrokeGray" data-item-index="6" data-renderer-id="0" transform="translate(495, 314)"></g></g></g></svg>